<svg width="128" height="36" viewBox="0 0 128 36" fill="none" xmlns="http://www.w3.org/2000/svg">
<path d="M22 23.296C22 25.1445 23.5164 26.8244 25.9596 26.8244C27.8621 26.8244 29.0135 25.8615 29.5541 24.9759C29.5541 25.7982 30.228 26.4659 31.0424 26.4659C31.6181 26.4659 32.257 26.4659 32.7414 26.4659C32.8045 26.4659 32.8607 26.4307 32.8958 26.3675C32.9169 26.3112 32.9169 26.241 32.8748 26.1847C32.5167 25.9739 32.1306 25.5382 32.1306 24.5893V18.7767C32.1306 16.4502 30.7616 14.4049 27.1601 14.4049C24.3729 14.4049 22.5687 16.0988 22.2668 18.0387C22.2527 18.1371 22.3159 18.2355 22.4212 18.2566C22.8635 18.362 24.0781 18.6361 24.5765 18.7486C24.6257 18.7626 24.6818 18.7486 24.731 18.7204C24.7661 18.6923 24.8012 18.6431 24.8152 18.5869C24.9978 17.5115 25.7981 16.6822 27.1811 16.6822C28.7186 16.6822 29.3856 17.4764 29.3856 18.4604C29.3856 18.868 29.203 19.2054 28.5291 19.3038L25.5243 19.7607C23.5375 20.0559 22 21.2085 22 23.296ZM51.0228 14.412C47.5476 14.412 44.971 17.0266 44.971 20.6041C44.971 24.2097 47.5476 26.8244 51.0228 26.8244C54.526 26.8244 57.0955 24.2097 57.0955 20.6041C57.0955 17.0266 54.519 14.412 51.0228 14.412ZM44.6973 26.4659C44.7815 26.4659 44.8517 26.4097 44.8658 26.3323C44.8799 26.255 44.8448 26.1707 44.7674 26.1426C44.7535 26.1355 44.7325 26.1285 44.7183 26.1215C43.8899 25.7489 43.3494 24.9126 43.3494 23.9989V9.23897C43.3494 9.17571 43.3283 9.11948 43.2791 9.07029C43.2441 9.02811 43.1809 9 43.1247 9C42.5209 9 40.9343 9 40.3375 9C40.2674 9 40.2042 9.02811 40.1691 9.07029C40.12 9.11246 40.0988 9.17571 40.0988 9.23897C40.0988 10.7993 40.0988 19.7958 40.0988 24.1183C40.0988 25.4187 41.145 26.4659 42.4437 26.4659C43.237 26.4659 44.0934 26.4659 44.6973 26.4659ZM38.5122 26.4659C38.5824 26.4659 38.6597 26.4097 38.6667 26.3323C38.6878 26.255 38.6456 26.1707 38.5684 26.1426C38.5543 26.1355 38.5474 26.1285 38.5333 26.1215C37.6908 25.7489 37.1643 24.9126 37.1643 23.9989C37.1643 21.2085 37.1643 15.2905 37.1643 13.5475C37.1643 13.4139 37.1011 13.2874 37.0098 13.196C36.9256 13.1047 36.7922 13.0484 36.6588 13.0484C36.3569 13.0484 35.9848 13.0484 35.683 13.0484C35.5777 13.0484 35.4794 12.9922 35.4302 12.8938C35.3951 12.8024 35.4092 12.69 35.4653 12.6056C36.1042 11.8114 37.4521 10.1386 38.0489 9.3936C38.1121 9.32331 38.119 9.22491 38.0699 9.14057C38.0348 9.05623 37.9506 9.00703 37.8663 9.00703C36.9045 9.00703 34.8265 9.00703 34.1244 9.00703C34.0612 9.00703 34.0051 9.03514 33.9559 9.07731C33.9208 9.11949 33.8857 9.18274 33.8857 9.246C33.8857 10.8063 33.8857 19.8028 33.8857 24.1254C33.8857 25.4256 34.9458 26.473 36.2446 26.473C37.059 26.4659 37.9154 26.4659 38.5122 26.4659ZM26.4861 24.6385C25.3769 24.6385 24.7801 23.9216 24.7801 23.1273C24.7801 22.1644 25.4751 21.6865 26.3457 21.5389L29.3856 21.082V21.6092C29.3856 23.9005 28.0517 24.6385 26.4861 24.6385ZM51.0228 24.3292C49.3167 24.3292 47.7653 23.0289 47.7653 20.6041C47.7653 18.1792 49.3167 16.9282 51.0228 16.9282C52.7568 16.9282 54.2802 18.1792 54.2802 20.6041C54.2802 23.0571 52.7568 24.3292 51.0228 24.3292Z" fill="#FFB003"/>
<path d="M58.71 26.7327V9.26685H61.0547V16.6187H61.1953C61.3286 16.3656 61.5251 16.0775 61.7848 15.7471C62.0448 15.4168 62.3958 15.1286 62.8521 14.8756C63.3083 14.6296 63.9122 14.5031 64.6563 14.5031C65.6322 14.5031 66.4957 14.7491 67.261 15.2411C68.0261 15.7331 68.6229 16.443 69.0652 17.3707C69.5005 18.2985 69.718 19.416 69.718 20.7233C69.718 22.0306 69.5005 23.1482 69.0652 24.0759C68.63 25.0037 68.0331 25.7207 67.2749 26.2197C66.5167 26.7186 65.6462 26.9717 64.6773 26.9717C63.9472 26.9717 63.3435 26.8452 62.8801 26.5993C62.4168 26.3532 62.0517 26.065 61.7919 25.7346C61.5322 25.4043 61.3286 25.1092 61.1882 24.8561H60.9917V26.7327H58.71ZM61.0127 20.6952C61.0127 21.5457 61.1391 22.2907 61.3847 22.9303C61.6305 23.5699 61.9884 24.0689 62.4519 24.4274C62.9153 24.7859 63.4909 24.9685 64.1649 24.9685C64.867 24.9685 65.4497 24.7788 65.927 24.4063C66.3973 24.0338 66.7554 23.5207 67.0012 22.8741C67.2468 22.2274 67.3662 21.5035 67.3662 20.6952C67.3662 19.901 67.2468 19.1841 67.0081 18.5515C66.7695 17.9189 66.4115 17.4199 65.9411 17.0474C65.4636 16.6819 64.874 16.4992 64.172 16.4992C63.4909 16.4992 62.9153 16.6749 62.4449 17.0263C61.9745 17.3778 61.6235 17.8698 61.3777 18.4953C61.132 19.1279 61.0127 19.8588 61.0127 20.6952Z" fill="#333333"/>
<path d="M74.9837 27.0001C74.2184 27.0001 73.5305 26.8596 72.9126 26.5713C72.2948 26.2831 71.8034 25.8684 71.4453 25.3273C71.0874 24.7791 70.9048 24.1113 70.9048 23.3242C70.9048 22.6424 71.0381 22.0801 71.298 21.6443C71.5578 21.2015 71.9157 20.8571 72.358 20.5971C72.8003 20.337 73.2988 20.1473 73.8534 20.0137C74.401 19.8802 74.9627 19.7818 75.5312 19.7185C76.2545 19.6342 76.8372 19.5639 77.2934 19.5077C77.7428 19.4514 78.0727 19.3601 78.2763 19.2336C78.4799 19.107 78.5853 18.9032 78.5853 18.6221V18.5658C78.5853 17.8771 78.3956 17.3499 78.0095 16.9704C77.6235 16.5908 77.0547 16.4011 76.2965 16.4011C75.5032 16.4011 74.8853 16.5768 74.4291 16.9212C73.9728 17.2726 73.6638 17.6592 73.4883 18.0809L71.2839 17.5748C71.5436 16.8439 71.9298 16.2464 72.4353 15.7966C72.9407 15.3468 73.5234 15.0164 74.1834 14.8056C74.8433 14.6018 75.5383 14.4963 76.2614 14.4963C76.7459 14.4963 77.2583 14.5526 77.799 14.665C78.3395 14.7775 78.8519 14.9813 79.3223 15.2835C79.7927 15.5857 80.1859 16.0075 80.4877 16.5627C80.7896 17.118 80.9441 17.8349 80.9441 18.7134V26.733H78.6483V25.0812H78.5572C78.4027 25.3835 78.1781 25.6858 77.8761 25.981C77.5742 26.2762 77.1811 26.515 76.7037 26.712C76.2193 26.9087 75.6506 27.0001 74.9837 27.0001ZM75.4963 25.1164C76.142 25.1164 76.7037 24.99 77.167 24.7298C77.6304 24.4698 77.9814 24.1395 78.2272 23.7177C78.4728 23.3031 78.5922 22.8532 78.5922 22.3753V20.822C78.5079 20.9063 78.3465 20.9837 78.1078 21.0539C77.8691 21.1242 77.5954 21.1875 77.2934 21.2367C76.9915 21.2859 76.6966 21.3281 76.4088 21.3702C76.121 21.4124 75.8823 21.4405 75.6857 21.4686C75.2295 21.5248 74.8152 21.6233 74.4432 21.7568C74.071 21.8903 73.7692 22.0871 73.5444 22.3402C73.3198 22.5932 73.2075 22.9306 73.2075 23.3523C73.2075 23.9356 73.4252 24.3714 73.8534 24.6666C74.2816 24.9688 74.8292 25.1164 75.4963 25.1164Z" fill="#333333"/>
<path d="M85.529 19.5637V26.7328H83.1841V14.6578H85.4377V16.6258H85.5851C85.8659 15.9862 86.3012 15.4731 86.8909 15.0865C87.4877 14.7 88.2318 14.5032 89.1375 14.5032C89.9589 14.5032 90.682 14.6719 91.2998 15.0163C91.9177 15.3606 92.395 15.8667 92.7391 16.5485C93.076 17.2232 93.2515 18.0596 93.2515 19.0577V26.7399H90.9066V19.3388C90.9066 18.4602 90.682 17.7785 90.2257 17.2794C89.7693 16.7874 89.1445 16.5344 88.3512 16.5344C87.8036 16.5344 87.3262 16.6539 86.905 16.8858C86.4837 17.1248 86.1537 17.4692 85.9081 17.919C85.6484 18.3759 85.529 18.9241 85.529 19.5637Z" fill="#333333"/>
<path d="M95.5044 26.7327V9.26685H97.8491V26.7327H95.5044ZM97.6597 22.6421L97.6456 19.7745H98.0529L102.862 14.6648H105.67L100.187 20.4844H99.815L97.6597 22.6421ZM103.122 26.7327L98.804 20.9904L100.419 19.3457L106 26.7257H103.122V26.7327Z" fill="#333333"/>
</svg>
