<svg width="128" height="36" viewBox="0 0 128 36" fill="none" xmlns="http://www.w3.org/2000/svg">
<path fill-rule="evenodd" clip-rule="evenodd" d="M59.4638 9H63.5592C63.5592 9 67.1867 14.5547 68.9681 16.8516C70.7495 19.1484 72.6712 21.762 72.6712 21.762V10.2449C72.6712 9.74621 71.3793 9 71.3793 9H76.1008C76.1008 9 74.5498 9.64429 74.5498 10.2449V27C74.5498 27 73.0635 26.1664 71.3757 24.1862C69.4827 21.9585 62.7423 12.9713 62.7423 12.9713V24.6121C62.7423 25.2091 64.0342 26.1118 64.0342 26.1118H59.4602C59.4602 26.1118 60.7162 25.2018 60.7162 24.6121V10.2449C60.7162 9.71709 59.4602 9 59.4602 9H59.4638Z" fill="#005E6A"/>
<path fill-rule="evenodd" clip-rule="evenodd" d="M78.7456 9H83.9998C83.9998 9 82.5891 9.67705 82.5891 10.2449V24.6121C82.5891 25.2346 83.9998 26.1118 83.9998 26.1118H78.7456C78.7456 26.1118 80.0591 25.2127 80.0591 24.6121V10.2449C80.0591 9.69889 78.7456 9 78.7456 9Z" fill="#005E6A"/>
<path fill-rule="evenodd" clip-rule="evenodd" d="M44 9C44 9 45.3639 9.68797 45.3639 10.2449V24.6121C45.3639 25.2237 44 26.1118 44 26.1118H51.7877C52.2735 26.1118 57.7256 25.2091 57.7256 20.9612C57.7256 16.7132 53.4935 16.3128 53.4935 16.3128C53.4935 16.3128 56.0738 15.5885 56.0738 12.6801C56.0702 9.54237 52.2735 9 51.7877 9H44ZM48.135 16.0289V10.6781H51.2983C51.7841 10.6781 53.4899 11.2532 53.4899 13.3862C53.4899 15.1444 51.7877 16.0289 51.2983 16.0289H48.135ZM48.135 17.4303H51.7841C52.2699 17.4303 55.1417 18.1838 55.1417 20.7027C55.1417 23.2216 52.2699 24.1826 51.7841 24.1826H48.135V17.4303Z" fill="#005E6A"/>
</svg>
