<svg width="128" height="36" viewBox="0 0 128 36" fill="none" xmlns="http://www.w3.org/2000/svg">
<path d="M44 9H52.9458C56.5703 9 59.2722 10.4619 59.2722 13.5533C59.2722 15.8223 58.0201 17.0863 55.8454 17.7563V17.802C58.432 18.2893 59.7829 19.5838 59.7829 21.7766C59.7829 26.0863 55.6807 26.9848 52.2045 26.9848H44V9ZM49.1896 16.1117H50.6394C52.3363 16.1117 54.0991 15.731 54.0991 14.2081C54.0991 12.5635 52.4351 12.4112 50.7053 12.4112H49.2061V16.1269L49.1896 16.1117ZM49.1896 23.5888H50.7217C52.6164 23.5888 54.5933 23.3299 54.5933 21.5025C54.5933 19.5381 52.5505 19.3706 50.7712 19.3706H49.1896C49.1896 19.3706 49.1896 23.5888 49.1896 23.6041V23.5888Z" fill="#00529C"/>
<path d="M60.938 9H70.1969C73.6566 9 76.4738 10.4467 76.4738 13.5381C76.4738 15.9289 75.2547 17.5279 72.734 18.0761V18.1218C74.398 18.533 74.5133 19.9036 75.5018 22.0964L77.3964 27H71.9926L70.8723 23.7563C69.8179 20.665 69.1425 19.8883 67.2149 19.8883H66.1276V27H60.938V9ZM66.1276 16.4772H67.495C69.1754 16.4772 71.2842 16.4315 71.2842 14.3909C71.2842 12.7157 69.472 12.4112 67.495 12.4112H66.1276V16.4772Z" fill="#00529C"/>
<path d="M78.8105 9H84.0001V26.9848H78.8105V9Z" fill="#00529C"/>
</svg>
