<svg width="128" height="36" viewBox="0 0 128 36" fill="none" xmlns="http://www.w3.org/2000/svg">
<path d="M89.0001 17.3668C89.0001 20.8126 86.3663 23.5649 83.0391 23.5649C79.7119 23.5649 77.1462 20.8359 77.1462 17.3668C77.1462 13.8977 79.7364 11.1919 83.0618 11.1919C86.3873 11.1919 89.0001 13.9192 89.0001 17.3668ZM80.2062 17.3901C80.2062 19.2572 81.4113 20.5975 83.0636 20.5975C84.7158 20.5975 85.9209 19.2339 85.9209 17.3901C85.9209 15.5462 84.6931 14.136 83.0636 14.136C81.434 14.136 80.2062 15.4996 80.2062 17.3901Z" fill="black"/>
<path d="M62.2026 20.6898H62.2044C61.7415 20.3888 61.4551 19.8548 61.4481 19.2742V12.8091C61.4481 11.9167 60.7739 11.1946 59.9408 11.1946C59.1776 11.1946 58.5506 11.802 58.4493 12.5905C57.6895 11.7106 56.5368 11.1946 55.1553 11.1946C52.0534 11.1946 49.7986 13.8036 49.7986 17.3927C49.7986 20.9819 52.0534 23.5909 55.1553 23.5909C55.1692 23.5909 55.1832 23.5909 55.1972 23.5909C55.2112 23.5909 55.2251 23.5909 55.2391 23.5909C56.7272 23.5909 58.0196 22.9906 58.961 21.9692C59.4431 22.772 60.2185 23.3597 61.1477 23.5389C61.2385 23.5568 61.3293 23.5658 61.4184 23.5658C61.4237 23.5658 61.4289 23.5658 61.4341 23.564C61.4411 23.564 61.4481 23.564 61.4551 23.564C62.2533 23.564 62.8995 22.8705 62.8995 22.014C62.8995 21.4514 62.62 20.9604 62.2026 20.6898ZM55.7142 20.6468C54.0392 20.6468 52.8568 19.2832 52.8568 17.3927C52.8568 15.5023 54.0619 14.1136 55.7142 14.1136C57.3664 14.1136 58.5052 15.4539 58.5052 17.3927C58.5052 19.3316 57.3891 20.6468 55.7142 20.6468Z" fill="black"/>
<path d="M75.5021 12.8189C75.5021 11.8854 74.8769 11.1919 74.028 11.1919C73.2473 11.1919 72.6221 11.8137 72.5539 12.6756C71.7959 11.742 70.6118 11.1919 69.1831 11.1919C66.0812 11.1919 63.8264 13.8009 63.8264 17.39C63.8264 20.9792 66.0812 23.5882 69.1831 23.5882C70.5768 23.5882 71.7278 23.0703 72.4876 22.1547V22.5399C72.4771 24.4716 71.3593 25.7671 69.6966 25.7671C68.9857 25.7671 68.3448 25.5234 67.847 25.0665C67.6618 24.8945 67.4959 24.6956 67.3579 24.4716C66.8969 23.728 65.9625 23.5273 65.2691 24.0218C64.5757 24.5164 64.3888 25.5181 64.8499 26.2617C65.1416 26.7312 65.4891 27.1541 65.8856 27.5178C66.9388 28.4872 68.2557 28.9997 69.6983 28.9997C73.0238 28.9997 75.4462 26.3334 75.4986 22.6403L75.5021 21.9415V12.8225V12.8189ZM69.7437 20.6441C68.0688 20.6441 66.8864 19.2805 66.8864 17.39C66.8864 15.4996 68.0915 14.1109 69.7437 14.1109C71.396 14.1109 72.533 15.4512 72.533 17.39C72.533 19.3289 71.4169 20.6441 69.7437 20.6441Z" fill="black"/>
<path d="M41.3203 19.6972C41.881 20.043 42.4207 20.396 43.0913 20.353C43.7341 20.3118 44.3227 19.9516 44.6894 19.3836C45.03 18.8568 45.023 18.2547 45.023 17.6437V9.04619C45.023 8.69139 45.0056 8.34018 45.1331 8.00151C45.5121 6.99626 46.7381 6.67372 47.5084 7.37614C47.9206 7.75244 48.0376 8.2703 48.0376 8.82041C48.0376 9.92959 48.0673 17.615 48.0306 18.3766C47.9625 19.751 47.3791 21.0841 46.4622 22.0446C45.5121 23.0409 44.2109 23.5874 42.887 23.5874C41.6155 23.5874 40.2724 23.0624 39.4393 21.998C39.1057 21.5697 38.9101 21.0644 39.0411 20.5035C39.1668 19.9624 39.5738 19.5305 40.082 19.4033C40.5431 19.2904 40.9291 19.4553 41.3203 19.6972Z" fill="black"/>
</svg>
