<svg width="128" height="36" viewBox="0 0 128 36" fill="none" xmlns="http://www.w3.org/2000/svg">
<path d="M30.0003 17.9872C30.0003 15.082 30.0003 12.1768 30.0003 9.27154C30.0003 9.09073 30.0763 9.00022 30.2284 9C31.43 9 32.6314 9 33.8328 9C34.0496 9 34.0501 9 34.0501 9.26759C34.0501 11.5302 34.0501 13.7928 34.0504 16.0554C34.0504 16.1487 34.0485 16.2433 34.06 16.3349C34.0964 16.6239 34.2072 16.6868 34.4067 16.5217C34.5229 16.4258 34.6269 16.3072 34.7323 16.1935C35.5765 15.283 36.5582 14.6859 37.6674 14.4166C38.9087 14.1154 40.1246 14.2288 41.2762 14.9024C42.2888 15.4949 43.0073 16.4324 43.4533 17.6708C43.7571 18.5144 43.8919 19.3966 43.9051 20.3137C43.9186 21.2549 43.847 22.1796 43.5884 23.0716C43.0452 24.9467 42.0106 26.2204 40.3935 26.7638C39.5636 27.0426 38.7219 27.0485 37.8722 26.9137C37.0882 26.7895 36.3532 26.5068 35.6824 26.0012C35.1725 25.6173 34.7394 25.1329 34.3784 24.5549C34.2414 24.3354 34.1126 24.1067 33.928 23.937C33.6734 23.7027 33.513 23.7195 33.3022 24.0148C33.0898 24.3124 32.9382 24.6603 32.7604 24.9863C32.1581 26.0909 31.334 26.7796 30.2306 26.9585C30.0204 26.9925 30 26.9721 30 26.719C30.0003 23.8085 30.0003 20.898 30.0003 17.9872ZM37.3978 23.1059C37.9715 23.0957 38.5207 22.9556 39.0476 22.6419C40.1021 22.0141 40.2438 20.5652 39.8916 19.5841C39.6959 19.0394 39.3203 18.7158 38.8803 18.5052C37.9013 18.0363 36.911 18.0419 35.9276 18.4851C35.5784 18.6423 35.2537 18.8677 35.0289 19.244C34.697 19.8 34.628 20.4215 34.7251 21.0812C34.8088 21.6497 35.0421 22.1011 35.4397 22.434C36.0272 22.9257 36.69 23.0911 37.3978 23.1059Z" fill="#00D2D3"/>
<path d="M64.0134 20.69C64.0134 22.6998 64.0134 24.71 64.0134 26.7199C64.0134 26.9743 63.9938 26.9924 63.783 26.9558C63.1832 26.8513 62.6271 26.6157 62.1433 26.1666C61.7397 25.7919 61.4274 25.3213 61.1533 24.8095C61.0028 24.5281 60.8759 24.2262 60.6811 23.9814C60.4745 23.7214 60.3358 23.7125 60.095 23.9254C59.9522 24.0516 59.8419 24.2134 59.7409 24.3821C59.2486 25.2056 58.6372 25.8637 57.8742 26.3066C57.1766 26.7116 56.4354 26.9133 55.6619 26.9733C54.9492 27.0283 54.242 27.0069 53.5415 26.8355C52.9529 26.6915 52.405 26.445 51.9838 25.8967C51.7058 25.5348 51.5157 25.111 51.3688 24.6583C51.1396 23.9521 51.0361 23.2126 50.9626 22.4632C50.8316 21.1286 50.8586 19.7893 50.857 18.4504C50.8553 17.1929 50.8564 15.935 50.8564 14.6775C50.8564 14.4991 50.9289 14.4099 51.0738 14.4099C52.2798 14.4099 53.4859 14.4099 54.6919 14.4099C54.8356 14.4099 54.9076 14.4944 54.9079 14.6634C54.9082 16.4043 54.8994 18.1453 54.9131 19.8859C54.9187 20.5601 54.9693 21.2353 55.1545 21.8819C55.4288 22.8389 55.9057 23.1997 56.7028 23.3052C57.0968 23.3572 57.487 23.3619 57.8734 23.2159C58.3797 23.0244 58.7704 22.6464 59.0827 22.1505C59.6264 21.2871 59.8917 20.2985 59.9365 19.2258C59.9987 17.7389 59.9481 16.2504 59.9627 14.7629C59.9665 14.3842 59.9247 14.4093 60.2598 14.4093C61.443 14.4093 62.626 14.4093 63.8092 14.4093C64.0128 14.4093 64.0134 14.4099 64.0134 14.6594C64.0134 16.6693 64.0134 18.6794 64.0134 20.6893V20.69Z" fill="#00D2D3"/>
<path d="M49.2954 17.9947C49.2954 20.894 49.2954 23.7932 49.2954 26.6925C49.2954 26.8784 49.217 26.9713 49.0604 26.9713C47.8546 26.9713 46.6486 26.9713 45.4428 26.9713C45.245 26.9713 45.243 26.969 45.243 26.7324C45.243 20.9009 45.243 15.0694 45.243 9.23784C45.243 9.00189 45.2444 9.00024 45.4436 9.00024C46.6632 9.00024 47.883 9.00024 49.1025 9.00024C49.2912 9.00024 49.2954 9.00519 49.2954 9.23059C49.2954 12.152 49.2954 15.073 49.2954 17.9943V17.9947Z" fill="#00D2D3"/>
<path d="M70.3305 26.5356C69.3903 26.5356 68.45 26.5374 67.5097 26.5346C67.0562 26.5332 67.0355 26.503 67.1483 26.0744C67.7963 23.6145 68.4375 21.1528 69.0999 18.6966C69.1978 18.334 69.1368 18.2015 68.7452 18.2449C68.3842 18.285 68.3569 18.1233 68.5076 17.8427C69.0221 16.8841 69.529 15.9213 70.0339 14.9571C70.1404 14.7534 70.2945 14.6751 70.5254 14.676C72.283 14.6836 74.0416 14.6572 75.7983 14.694C77.459 14.7288 78.512 16.043 78.2389 17.6683C78.0527 18.7749 77.482 19.6661 76.6176 20.3766C76.3819 20.5704 76.3709 20.6746 76.5897 20.901C77.4623 21.803 77.6126 23.0676 76.955 24.2515C76.1232 25.7491 74.7568 26.4347 73.0687 26.5209C72.1582 26.5676 71.2434 26.5294 70.3305 26.5294V26.5356ZM72.3732 23.4519C72.6977 23.4486 73.026 23.475 73.3313 23.3255C73.7186 23.1359 73.9835 22.6192 73.8943 22.2217C73.8127 21.8572 73.4815 21.6266 72.9929 21.6304C71.8184 21.6394 72.0944 21.4852 71.7982 22.5178C71.7834 22.5692 71.768 22.6201 71.7546 22.672C71.6183 23.1919 71.8243 23.4519 72.3728 23.4519H72.3732ZM73.278 19.4313C74.0934 19.4289 74.4659 19.196 74.6128 18.5971C74.7126 18.1907 74.5547 17.9493 74.1419 17.8757C73.2175 17.7107 73.0711 17.8003 72.8081 18.6929C72.8004 18.7183 72.7937 18.7443 72.786 18.7697C72.6526 19.212 72.8167 19.4325 73.2785 19.4313H73.278Z" fill="#0067B9"/>
<path d="M97.9998 20.5676C97.9998 22.3759 98.0007 24.1846 97.9993 25.9929C97.9993 26.4955 97.9772 26.5177 97.4728 26.5196C96.6002 26.5224 95.7271 26.5054 94.855 26.5271C94.4543 26.537 94.3242 26.3861 94.3487 26.0084C94.3736 25.6218 94.3472 25.2319 94.3549 24.8433C94.3597 24.6052 94.2551 24.5029 94.0137 24.5043C93.25 24.509 92.4864 24.509 91.7228 24.5057C91.4842 24.5048 91.3551 24.6236 91.2587 24.8273C91.0523 25.2644 90.8118 25.6864 90.6165 26.1282C90.4816 26.4328 90.2776 26.5318 89.9488 26.5266C88.9399 26.5106 87.9306 26.5224 86.9217 26.52C86.4465 26.5191 86.4321 26.4979 86.6491 26.0759C87.9339 23.5778 89.2222 21.0816 90.508 18.5835C90.7489 18.1158 90.7461 18.103 90.2277 18.0898C89.9176 18.0818 89.8308 17.9852 89.9796 17.7013C90.4662 16.7729 90.9481 15.8416 91.4252 14.909C91.5284 14.7072 91.6719 14.6096 91.9066 14.6101C93.802 14.6143 95.6974 14.6176 97.5928 14.6082C97.9739 14.6063 97.9964 14.8185 97.9955 15.1023C97.9902 16.9242 97.9931 18.7462 97.9931 20.5676H97.9993H97.9998ZM94.3564 18.8834C94.33 18.8763 94.3031 18.8697 94.2767 18.8626C93.8447 19.7085 93.4147 20.5549 92.9803 21.3999C92.8882 21.5786 92.9064 21.6762 93.1377 21.6729C93.4368 21.6681 93.7358 21.6672 94.0348 21.6729C94.2546 21.6771 94.3592 21.5861 94.3578 21.364C94.354 20.537 94.3564 19.7104 94.3564 18.8834Z" fill="#0067B9"/>
<path d="M87.1483 23.0617C86.882 23.5913 86.629 24.1014 86.3698 24.6083C86.0819 25.1704 85.7862 25.7282 85.4982 26.2902C85.4157 26.4515 85.3245 26.5882 85.1224 26.6221C83.623 26.8763 82.1356 26.9319 80.7139 26.2845C78.7341 25.383 77.6484 23.2862 78.0424 21.1729C78.687 17.7143 81.6863 14.9074 85.2323 14.466C85.6753 14.4109 86.1303 14.4495 86.5801 14.4439C86.7145 14.4425 86.8877 14.4934 86.965 14.3713C87.1723 14.045 87.3898 14.1963 87.6187 14.3218C88.2854 14.6862 88.9497 15.0559 89.6216 15.41C89.8856 15.5491 89.9667 15.6901 89.8088 15.9782C89.3571 16.8033 88.9276 17.6403 88.5043 18.4796C88.3756 18.7347 88.2782 18.7714 88.0257 18.5885C86.9079 17.778 85.6854 17.661 84.4399 18.24C83.1598 18.8346 82.352 19.821 82.2239 21.245C82.1111 22.4988 83.1248 23.5163 84.5296 23.5936C85.2784 23.6351 85.9892 23.4682 86.677 23.1839C86.8076 23.1301 86.9242 23.0179 87.1479 23.0608L87.1483 23.0617Z" fill="#0067B9"/>
</svg>
