<svg width="128" height="36" viewBox="0 0 128 36" fill="none" xmlns="http://www.w3.org/2000/svg">
<path fill-rule="evenodd" clip-rule="evenodd" d="M44.0816 9H48.0757C48.0757 9 51.6136 14.5547 53.3509 16.8516C55.0882 19.1484 56.9624 21.762 56.9624 21.762V10.2449C56.9624 9.74621 55.7024 9 55.7024 9H60.3072C60.3072 9 58.7945 9.64429 58.7945 10.2449V27C58.7945 27 57.345 26.1664 55.6989 24.1862C53.8528 21.9585 47.279 12.9713 47.279 12.9713V24.6121C47.279 25.2091 48.539 26.1118 48.539 26.1118H44.0781C44.0781 26.1118 45.303 25.2018 45.303 24.6121V10.2449C45.303 9.71709 44.0781 9 44.0781 9H44.0816Z" fill="#005E6A"/>
<path fill-rule="evenodd" clip-rule="evenodd" d="M62.8867 9H68.011C68.011 9 66.6351 9.67705 66.6351 10.2449V24.6121C66.6351 25.2346 68.011 26.1118 68.011 26.1118H62.8867C62.8867 26.1118 64.1678 25.2127 64.1678 24.6121V10.2449C64.1678 9.69889 62.8867 9 62.8867 9Z" fill="#005E6A"/>
<path fill-rule="evenodd" clip-rule="evenodd" d="M29 9C29 9 30.3302 9.68797 30.3302 10.2449V24.6121C30.3302 25.2237 29 26.1118 29 26.1118H36.5951C37.0689 26.1118 42.3862 25.2091 42.3862 20.9612C42.3862 16.7132 38.2587 16.3128 38.2587 16.3128C38.2587 16.3128 40.7752 15.5885 40.7752 12.6801C40.7717 9.54237 37.0689 9 36.5951 9H29ZM33.0327 16.0289V10.6781H36.1178C36.5916 10.6781 38.2552 11.2532 38.2552 13.3862C38.2552 15.1444 36.5951 16.0289 36.1178 16.0289H33.0327ZM33.0327 17.4303H36.5916C37.0654 17.4303 39.8662 18.1838 39.8662 20.7027C39.8662 23.2216 37.0654 24.1826 36.5916 24.1826H33.0327V17.4303Z" fill="#005E6A"/>
<path d="M78.4944 25.6022H74.4861L72.0249 9H75.3534L76.9942 21.7837L83.0418 9H86.7219L78.4944 25.6022Z" fill="#E9693E"/>
<path d="M98.9998 25.6022H95.5072L95.0853 22.6138H88.522L86.9984 25.6022H83.459L92.1084 9H96.1167L98.9998 25.6022ZM93.6554 12.6288L90.0925 19.5542H94.6399L93.6554 12.6288Z" fill="#E9693E"/>
</svg>
