<svg width="128" height="36" viewBox="0 0 128 36" fill="none" xmlns="http://www.w3.org/2000/svg">
<path d="M55.6532 23.1208C56.0913 23.1208 56.4486 23.06 56.7223 22.94C57.003 22.82 57.2228 22.6635 57.3802 22.4721C57.5375 22.2806 57.6453 22.0649 57.7034 21.8234C57.763 21.5818 57.7913 21.3372 57.7913 21.0896C57.7913 20.8055 57.7559 20.5503 57.6836 20.3239C57.6184 20.0976 57.5007 19.9062 57.3305 19.7497C57.1675 19.5932 56.9477 19.4732 56.6726 19.3881C56.3976 19.3031 56.0516 19.2605 55.6319 19.2605H53.3165V23.1192H55.6517L55.6532 23.1208ZM53.3165 13.0334V16.8602H55.0435C55.4093 16.8602 55.7396 16.8314 56.0346 16.7752C56.3295 16.7189 56.5776 16.6187 56.7804 16.4774C56.9902 16.3361 57.1462 16.1401 57.2511 15.8925C57.3617 15.6449 57.4184 15.3319 57.4184 14.9567C57.4184 14.5815 57.3759 14.2837 57.2908 14.0422C57.2058 13.7945 57.0753 13.5955 56.8981 13.4466C56.7208 13.2978 56.4954 13.1914 56.2203 13.1276C55.9523 13.0638 55.6319 13.0319 55.259 13.0319H53.3165V13.0334ZM55.2604 10.3445C56.2487 10.3445 57.0895 10.4432 57.7828 10.6422C58.4762 10.8413 59.0419 11.1208 59.4801 11.4823C59.9182 11.8439 60.2358 12.283 60.4315 12.801C60.6342 13.319 60.7363 13.8963 60.7363 14.5344C60.7363 14.8823 60.6909 15.218 60.5988 15.5446C60.5066 15.8636 60.3634 16.1644 60.1663 16.4485C59.9707 16.725 59.7183 16.9802 59.4106 17.2142C59.1029 17.4481 58.7328 17.6502 58.3018 17.8203C59.2433 18.068 59.9409 18.469 60.3918 19.022C60.8427 19.575 61.0695 20.2905 61.0695 21.1686C61.0695 21.8279 60.9518 22.4402 60.7165 23.0083C60.4811 23.575 60.1337 24.0718 59.6757 24.4971C59.2248 24.9149 58.6648 25.2446 57.9969 25.4861C57.3291 25.7201 56.5677 25.837 55.7099 25.837H50V10.3445H55.2604Z" fill="#00A39D"/>
<path d="M71.2598 13.503C71.162 13.6732 71.0571 13.8008 70.9465 13.8859C70.8415 13.9709 70.704 14.0135 70.5339 14.0135C70.3836 14.0135 70.2205 13.9633 70.0433 13.8646C69.8731 13.7582 69.6775 13.6413 69.4548 13.5137C69.2393 13.386 68.9898 13.2736 68.709 13.1734C68.4283 13.067 68.1064 13.0138 67.7477 13.0138C67.1267 13.0138 66.6616 13.1597 66.3539 13.4498C66.0533 13.7324 65.903 14.1183 65.903 14.6075C65.903 14.9189 65.9952 15.1772 66.1781 15.3822C66.361 15.5873 66.6006 15.7651 66.8941 15.9124C67.1947 16.0613 67.535 16.1996 67.915 16.3272C68.3007 16.4472 68.6934 16.5854 69.0933 16.7419C69.4917 16.8908 69.8816 17.067 70.2616 17.2721C70.6473 17.4772 70.9876 17.74 71.2825 18.0575C71.5831 18.3765 71.8256 18.7654 72.0085 19.2258C72.1914 19.6785 72.2835 20.2269 72.2835 20.871C72.2835 21.5866 72.1687 22.255 71.9404 22.8779C71.7121 23.5007 71.3775 24.0461 70.9394 24.5125C70.5069 24.9728 69.971 25.3374 69.3301 25.6063C68.6949 25.8676 67.9731 25.9998 67.1607 25.9998C66.7155 25.9998 66.2617 25.9496 65.7967 25.8509C65.3387 25.7521 64.8935 25.6139 64.4624 25.4361C64.03 25.2523 63.6244 25.0366 63.2459 24.789C62.8659 24.5413 62.5355 24.2649 62.2548 23.961L63.2359 22.2839C63.3139 22.1638 63.416 22.0651 63.5408 21.9861C63.6712 21.901 63.8116 21.8585 63.9633 21.8585C64.159 21.8585 64.3561 21.9253 64.5518 22.0605C64.7545 22.1957 64.98 22.3431 65.2295 22.5072C65.4847 22.6697 65.7754 22.8186 66.1029 22.9538C66.4305 23.089 66.8161 23.1559 67.2614 23.1559C67.864 23.1559 68.3305 23.0146 68.6651 22.7305C68.9983 22.4403 69.1656 21.9831 69.1656 21.3602C69.1656 20.9986 69.0734 20.7054 68.8905 20.4791C68.7076 20.2527 68.4652 20.0643 68.1646 19.917C67.8696 19.7681 67.5336 19.6374 67.1536 19.5235C66.7736 19.4096 66.3851 19.2865 65.9852 19.1513C65.5868 19.01 65.1969 18.8399 64.8169 18.6424C64.4369 18.4373 64.0966 18.1714 63.796 17.8463C63.5011 17.5136 63.2629 17.1035 63.08 16.6143C62.8971 16.119 62.8049 15.5098 62.8049 14.7882C62.8049 14.2079 62.9127 13.6413 63.1282 13.0898C63.3437 12.5383 63.6613 12.0461 64.0796 11.6132C64.4979 11.1817 65.0126 10.8384 65.6208 10.5832C66.2291 10.3219 66.9267 10.1897 67.7108 10.1897C68.149 10.1897 68.5743 10.2292 68.9869 10.3067C69.4052 10.3781 69.8008 10.4875 70.1737 10.6363C70.5466 10.7776 70.894 10.9508 71.2145 11.1559C71.542 11.3534 71.8327 11.5813 72.0879 11.835L71.2641 13.5015L71.2598 13.503Z" fill="#00A39D"/>
<path d="M77.788 25.8389H74.3383V10C76.4963 10.313 77.7908 12.2256 77.788 14.2507V25.8389Z" fill="#00A39D"/>
</svg>
