<svg width="128" height="36" viewBox="0 0 128 36" fill="none" xmlns="http://www.w3.org/2000/svg">
<path d="M7.70025 13.0027C9.03706 11.2646 11.0926 10.1483 13.2282 10.0222C15.2511 9.8593 17.3093 10.6002 18.8295 11.9955C18.1434 12.7166 17.456 13.4334 16.7645 14.1487C15.5948 13.16 13.97 12.7704 12.5136 13.2039C10.8888 13.6487 9.58456 15.0964 9.22183 16.802C8.77894 18.6535 9.41882 20.7571 10.8793 21.9301C12.5476 23.3538 15.1356 23.2815 16.7754 21.8437C17.4628 22.5619 18.1652 23.2673 18.835 24.0054C17.4778 25.235 15.713 25.9744 13.9116 25.9971C11.6414 26.0623 9.36719 25.0211 7.88501 23.2263C6.84843 21.9952 6.18818 20.4228 6.04009 18.7909C5.83224 16.734 6.43951 14.602 7.70025 13.0027Z" fill="#790008"/>
<path d="M21.5576 10.447C22.5426 10.447 23.5262 10.4484 24.5111 10.4456C24.5138 15.4872 24.5111 20.5274 24.5125 25.5691C23.5275 25.5691 22.5426 25.5691 21.5576 25.5691C21.559 20.5289 21.5576 15.4886 21.5576 10.4484V10.447Z" fill="#790008"/>
<path d="M28.0445 10.4117C29.0022 10.4089 29.96 10.4174 30.9192 10.4075C32.6269 13.6104 34.2911 16.8416 36.0205 20.0332C37.697 16.8204 39.3979 13.6231 41.0743 10.4103C42.0403 10.4131 43.0062 10.4103 43.9735 10.4117C43.9681 15.4548 43.983 20.4964 43.9653 25.5395C42.9817 25.5239 41.9995 25.5423 41.0159 25.5296C41.0227 22.5448 41.0159 19.5615 41.02 16.5781C39.3259 19.5941 37.7119 22.661 35.9879 25.6571C34.3413 22.6213 32.6499 19.6125 30.9966 16.581C31.002 19.5657 30.9966 22.5491 30.9993 25.5338C30.0144 25.5338 29.0308 25.5338 28.0458 25.5338C28.0417 20.4922 28.0458 15.452 28.0445 10.4103V10.4117Z" fill="#790008"/>
<path d="M47.3373 10.4456C49.3317 10.4484 51.3247 10.4456 53.319 10.447C54.2415 10.4654 55.1884 10.668 55.9764 11.1907C57.8797 12.4033 58.3171 15.5524 56.7276 17.2211C56.5239 17.4478 56.282 17.6348 56.0416 17.8161C56.9477 18.3133 57.6433 19.2355 57.8118 20.2979C58.0577 21.7315 57.7438 23.3776 56.6774 24.3891C55.8269 25.2376 54.6178 25.5436 53.4712 25.5592C51.4266 25.5818 49.3806 25.5634 47.336 25.5691C47.3373 20.5274 47.3332 15.4872 47.3373 10.4456ZM50.2908 13.2093C50.2895 14.3072 50.2908 15.405 50.2908 16.5029C51.1603 16.5001 52.0311 16.5072 52.9019 16.5015C53.4087 16.4916 53.9562 16.3811 54.3271 15.9915C54.8542 15.4079 54.8678 14.4233 54.3991 13.7972C54.0391 13.3453 53.444 13.2051 52.9047 13.2079C52.0325 13.2079 51.1616 13.2079 50.2908 13.2079M50.2908 19.2653C50.2908 20.4325 50.2895 21.6012 50.2908 22.7699C51.2513 22.7713 52.2118 22.7685 53.1723 22.7727C53.622 22.7869 54.0948 22.6552 54.4317 22.3308C55.1028 21.6565 55.115 20.3999 54.4303 19.7313C54.0608 19.3658 53.531 19.2709 53.0405 19.2638C52.1235 19.2624 51.2065 19.2638 50.2908 19.2653Z" fill="#790008"/>
<path d="M61.1532 10.4133C61.6463 10.419 62.1395 10.3949 62.6326 10.4204C62.8582 10.6032 62.9845 10.8893 63.1652 11.1188C65.8714 14.9733 68.5559 18.8449 71.2771 22.6881C71.2744 18.5956 71.2771 14.5044 71.2757 10.4119H72.8041V25.4986C72.2892 25.4986 71.7743 25.4986 71.2608 25.5014C68.4024 21.4018 65.5454 17.3008 62.6829 13.204V25.4972C62.1694 25.4958 61.6558 25.5085 61.145 25.4859C61.1681 20.4626 61.1491 15.438 61.1532 10.4133Z" fill="#790008"/>
<path d="M76.6079 10.4126H78.1363C78.1363 15.4415 78.1349 20.469 78.1363 25.4965C77.6268 25.5007 77.1174 25.4979 76.6093 25.4993C76.6052 20.4704 76.6093 15.4415 76.6079 10.4126Z" fill="#790008"/>
<path d="M80.4893 25.6004C82.2513 20.5701 84.0147 15.5398 85.789 10.5151C86.4954 10.5222 87.2005 10.5166 87.907 10.518C89.5875 15.5115 91.2653 20.5078 92.9513 25.4984C92.3508 25.4984 91.7503 25.4984 91.1512 25.4984C90.7042 24.1626 90.2505 22.8282 89.7899 21.4966C87.7942 21.498 85.7998 21.498 83.8055 21.498C83.3599 22.865 82.9319 24.2405 82.485 25.6075C81.8193 25.6018 81.1536 25.6103 80.4893 25.6018M84.4168 19.689C86.005 19.6961 87.5945 19.689 89.1826 19.6918C88.3865 17.2723 87.6013 14.8485 86.8188 12.4247C86.0213 14.8471 85.2075 17.2638 84.4168 19.689Z" fill="#790008"/>
<path d="M96.3442 12.9873C97.5506 11.6926 99.1646 10.7619 100.905 10.5947C103.05 10.3695 105.186 11.1996 106.921 12.4731C106.582 12.9307 106.226 13.3726 105.891 13.8316C105.313 12.9746 104.29 12.6544 103.368 12.3952C101.763 11.9348 99.943 12.1841 98.5885 13.2225C97.3645 14.1858 96.5466 15.6491 96.2219 17.2003C96.0385 18.8038 96.1907 20.5547 97.1036 21.9118C97.4175 22.4247 97.9174 22.7547 98.3454 23.1528C99.2529 23.9248 100.443 24.2747 101.603 24.2634C103.031 24.2776 104.444 23.8965 105.749 23.3114C105.748 21.7617 105.752 20.2119 105.748 18.6622C104.616 18.6636 103.485 18.6636 102.353 18.6622C102.353 18.1919 102.353 17.7216 102.352 17.2513C103.959 17.2413 105.566 17.2513 107.175 17.2456C107.177 19.6425 107.175 22.0379 107.176 24.4348C105.642 25.3272 103.884 25.7012 102.153 25.8811C100.321 25.9208 98.4065 25.4307 96.98 24.1826C95.5861 22.9885 94.7724 21.171 94.5333 19.3294C94.3499 17.0884 94.896 14.7014 96.3442 12.9873Z" fill="#790008"/>
<path d="M109.626 25.585C111.396 20.566 113.158 15.5442 114.915 10.5195C115.621 10.5153 116.328 10.5238 117.036 10.5125C118.659 15.2793 120.246 20.0603 121.864 24.8299C121.94 25.0438 121.982 25.2677 122 25.4972C121.43 25.5 120.864 25.4972 120.297 25.5C119.837 24.1684 119.389 22.8311 118.935 21.4981C116.932 21.4953 114.93 21.4939 112.929 21.4981C112.499 22.868 112.054 24.2321 111.622 25.6006C110.956 25.5963 110.29 25.6232 109.626 25.5836M115.949 12.4319C115.161 14.8557 114.339 17.2668 113.558 19.6934C115.14 19.6849 116.724 19.6905 118.307 19.6905C117.537 17.2653 116.738 14.8501 115.949 12.4319Z" fill="#790008"/>
</svg>
