<svg width="128" height="36" viewBox="0 0 128 36" fill="none" xmlns="http://www.w3.org/2000/svg">
<path d="M19.8307 12.0747H21.5973C22.6056 12.0747 23.4195 12.1502 24.3183 13.1282C24.954 13.8044 25.6518 15.2969 25.6518 17.712C25.6518 18.5791 25.6584 19.437 25.4852 20.3196C25.2057 21.7104 24.5242 23.9407 20.6265 23.9407C19.5839 23.9407 19.8307 23.9145 19.8307 23.9145V12.0762V12.0747ZM21.8343 26C27.0785 26 29.4269 23.7944 29.4269 17.7705C29.4269 16.1779 28.9301 13.5087 27.3564 11.8806C25.7287 10.2079 23.6237 10 21.8457 10H16V26H21.8343Z" fill="#046148"/>
<path d="M38.3857 21.8552C38.3857 22.3851 38.3694 23.0967 37.7729 23.6049C37.2728 24.0193 36.5684 24.0516 36.3004 24.0516C35.6353 24.0516 35.0355 23.8236 34.7838 23.0489C34.7201 22.804 34.6956 22.5576 34.6956 22.3219C34.6956 21.1529 35.5176 20.6615 36.4328 20.4521C36.9116 20.3473 37.2352 20.3273 38.3857 20.2364V21.8552ZM38.3857 18.7948L36.4753 18.9719C34.4161 19.1937 33.6284 19.3724 32.7476 19.9238C31.3258 20.8356 31.3062 22.1679 31.3062 22.6053C31.3062 23.6989 31.6575 24.5214 32.138 24.9942C32.7704 25.6889 33.7722 25.943 34.7381 25.943C37.1094 25.943 38.2402 24.928 38.2402 24.928L38.2566 25.6504H41.4532V18.0816C41.4532 17.2299 41.4744 16.0316 40.4383 15.1845C39.8957 14.747 39.4202 14.5437 38.6864 14.4467C37.9575 14.3235 37.7026 14.2742 36.9917 14.2742C34.8345 14.2742 33.2084 14.6315 32.2818 16.1871C31.8847 16.8602 31.9043 17.5364 31.9043 18.0539H34.8345C34.8623 17.6026 34.8835 16.9788 35.2561 16.546C35.4457 16.2996 35.8886 15.9484 36.709 15.9484C36.977 15.9484 37.7532 15.9484 38.1487 16.5583C38.3694 16.9188 38.3873 17.387 38.3873 17.9168V18.7979H38.3841L38.3857 18.7948Z" fill="#046148"/>
<path d="M63.8381 21.8552C63.8381 22.3851 63.8218 23.0967 63.2204 23.6049C62.7334 24.0193 62.0258 24.0516 61.7414 24.0516C61.0812 24.0516 60.4912 23.8236 60.2346 23.0489C60.1709 22.804 60.1529 22.5576 60.1529 22.3219C60.1529 21.1529 60.97 20.6615 61.8901 20.4521C62.369 20.3473 62.6876 20.3273 63.8398 20.2364V21.8552H63.8381ZM63.8381 18.7948L61.9359 18.9719C59.8637 19.1937 59.0874 19.3724 58.2016 19.9238C56.788 20.8356 56.7651 22.1679 56.7651 22.6053C56.7651 23.6989 57.1067 24.5214 57.5823 24.9942C58.2229 25.6889 59.2312 25.943 60.1938 25.943C62.57 25.943 63.6992 24.928 63.6992 24.928L63.7156 25.6504H66.9007V18.0816C66.9007 17.2299 66.9285 16.0316 65.8973 15.1845C65.3547 14.747 64.871 14.5437 64.1454 14.4467C63.4116 14.3235 63.1616 14.2742 62.4458 14.2742C60.2902 14.2742 58.6674 14.6315 57.7342 16.1871C57.342 16.8602 57.3665 17.5364 57.3665 18.0539H60.2886C60.3163 17.6026 60.3376 16.9788 60.7118 16.546C60.8981 16.2996 61.341 15.9484 62.163 15.9484C62.4311 15.9484 63.2057 15.9484 63.6126 16.5583C63.8218 16.9188 63.8414 17.387 63.8414 17.9168V18.7979H63.8398L63.8381 18.7948Z" fill="#046148"/>
<path d="M112 25.6506H108.665V18.8766C108.665 18.4438 108.665 18.0818 108.627 17.7137C108.594 17.3594 108.486 16.2089 107.032 16.2089C106.646 16.2089 106.319 16.2982 106.11 16.3814C105.126 16.8065 105.102 17.5581 105.077 18.1573V25.6521H101.735V14.5639H105.077V15.8238C105.917 15.1153 106.676 14.3406 108.552 14.3406C110.127 14.3406 110.907 14.9151 111.229 15.2709C111.971 16.0564 111.971 17.076 112 17.8708V25.649V25.6506Z" fill="#046148"/>
<path d="M54.3085 25.6506H50.9747V18.8766C50.9747 18.4438 50.9747 18.0818 50.9191 17.7137C50.8979 17.3594 50.7835 16.2089 49.3208 16.2089C48.9482 16.2089 48.6214 16.2982 48.4122 16.3814C47.4267 16.8065 47.3973 17.5581 47.3712 18.1573V25.6521H44.0308V14.5639H47.3712V15.8238C48.2275 15.1153 48.9776 14.3406 50.8505 14.3406C52.434 14.3406 53.2005 14.9151 53.5323 15.2709C54.2807 16.0564 54.2807 17.076 54.3069 17.8708V25.649L54.3085 25.6506Z" fill="#046148"/>
<path d="M69.3478 14.5593H72.6866V15.8484C73.3272 15.3094 74.4581 14.3313 76.4633 14.3313C78.7578 14.3313 79.3952 15.622 79.552 16.0487C80.9183 14.8026 81.8171 14.3313 83.1245 14.3313C83.7651 14.3313 84.2047 14.4299 84.6296 14.5762C86.4289 15.2277 86.4665 16.7341 86.5009 17.7121V25.6428H83.1033V18.4191C83.0869 17.6336 83.0608 17.19 82.8434 16.8419C82.8009 16.7526 82.4675 16.1996 81.6243 16.1996C81.3383 16.1996 80.7941 16.2643 80.5375 16.3968C79.6027 16.8172 79.5668 17.5489 79.5504 18.1434V25.6428H76.2394V18.4653C76.2394 17.612 76.2509 16.1996 74.7425 16.1996C74.4025 16.1996 73.8093 16.2905 73.5168 16.443C72.685 16.9266 72.6621 17.6351 72.685 18.6209V25.6444H69.3462V14.5593H69.3478Z" fill="#046148"/>
<path d="M96.365 19.8669C96.365 20.4968 96.3372 21.1006 96.2686 21.7105C96.1983 22.322 96.0855 23.5526 95.0854 24.0702C94.7977 24.1995 94.4954 24.2673 94.1833 24.2673C92.2892 24.2673 92.1192 22.3944 92.08 21.7105C92.0375 21.2007 92.0032 20.7001 92.0032 20.2042C92.0032 19.7606 92.0359 19.1445 92.1045 18.4175C92.1731 17.8307 92.3104 16.7078 93.2746 16.1764C93.6047 16.0193 93.9202 15.9546 94.2895 15.9546C96.0872 15.9546 96.2506 17.7321 96.2931 18.4175C96.3421 18.9027 96.3683 19.3909 96.3683 19.8669M99.774 19.9238C99.774 18.9396 99.774 17.099 98.6137 15.8484C97.2132 14.2727 95.2079 14.2727 94.4987 14.2727C93.675 14.2727 91.7809 14.3035 90.2954 15.5742C88.6138 16.9866 88.6138 19.2431 88.6138 20.3844C88.6138 22.5515 89.1318 24.8418 92.0408 25.6412C92.8873 25.8846 93.3367 25.9277 94.1898 25.9277C94.9873 25.9277 96.9811 25.9277 98.4617 24.3767C99.7773 23.0043 99.7773 20.945 99.7773 19.9223" fill="#046148"/>
</svg>
