<svg width="128" height="36" viewBox="0 0 128 36" fill="none" xmlns="http://www.w3.org/2000/svg">
<path fill-rule="evenodd" clip-rule="evenodd" d="M35.5999 25.9435C37.5564 26.091 39.8362 24.4907 40.6393 23.577C43.4311 20.3961 43.4985 15.7964 40.6878 12.4652C39.6422 11.2252 37.1845 9.85462 35.6295 10.0476H30V25.9236L35.6134 25.9435H35.5999ZM33.1745 22.5044V13.4668C34.0558 13.4072 34.9397 13.4072 35.8209 13.4668C36.5135 13.5519 37.1764 13.8215 37.7423 14.25C40.9761 16.5768 39.6287 22.1242 35.767 22.4959C34.9046 22.5611 34.0369 22.564 33.1745 22.5044Z" fill="#008CEB"/>
<path fill-rule="evenodd" clip-rule="evenodd" d="M85.1723 25.9715H88.3819V22.5494H94.7498L94.7687 25.9544H97.9783V20.3134C97.9783 18.6109 98.113 16.4884 97.7088 14.9476C96.7791 11.378 93.2785 9.2782 89.8883 10.2543C87.7432 10.8729 86.0616 12.6237 85.4499 14.8767C85.0187 16.3976 85.1643 18.5797 85.1643 20.268C85.1643 22.1748 85.1454 24.093 85.1643 25.9998L85.1723 25.9715ZM88.3846 19.1074C88.3657 17.6887 88.2229 16.1706 88.8562 15.0781C89.4221 14.0538 90.4677 13.4295 91.5915 13.4409C92.7098 13.4494 93.742 14.0765 94.3079 15.0923C94.9331 16.2273 94.7849 17.6461 94.7687 19.1103H88.3846V19.1074Z" fill="#008CEB"/>
<path fill-rule="evenodd" clip-rule="evenodd" d="M48.3786 25.9688H51.5774C51.5774 25.2538 51.4911 23.066 51.607 22.5468H57.9507L57.9723 25.966H61.1764C61.1603 24.0705 61.1764 22.1779 61.1764 20.2909C61.1764 18.6735 61.3193 16.3581 60.907 14.9223C59.9718 11.3527 56.4631 9.25855 53.073 10.2432C50.936 10.8646 49.2598 12.6125 48.6481 14.857C48.2196 16.3325 48.3651 18.5884 48.3651 20.2313C48.3651 22.1268 48.3247 24.0705 48.3651 25.9603L48.3786 25.9688ZM51.5801 19.1077C51.5585 17.6889 51.4211 16.1509 52.0544 15.0812C52.9329 13.495 54.8651 12.9615 56.3715 13.8866C56.8431 14.176 57.2339 14.5875 57.5061 15.0812C58.134 16.2162 57.983 17.6577 57.9723 19.102L51.5801 19.1077Z" fill="#008CEB"/>
<path fill-rule="evenodd" clip-rule="evenodd" d="M66.8631 16.2473L66.8173 18.611C66.8173 20.5973 66.7257 24.3059 66.8173 25.9205H69.9541C70.0269 24.7855 69.841 16.724 70.0377 16.4658C70.0377 14.8995 71.5926 13.441 73.161 13.4353C73.9776 13.4296 74.7618 13.7588 75.3492 14.3547C75.7481 14.7377 76.3598 15.6117 76.349 16.4942C76.4946 16.5821 76.3787 25.0068 76.4245 25.9404H79.564L79.5397 16.3069C79.6179 15.5521 79.1867 14.3859 78.9091 13.7957C77.3865 10.4701 73.5922 9.074 70.4338 10.6772C69.1726 11.3185 68.1486 12.3769 67.518 13.6935C67.2485 14.2752 66.7958 15.4727 66.8631 16.2473Z" fill="#008CEB"/>
</svg>
