<svg width="128" height="36" viewBox="0 0 128 36" fill="none" xmlns="http://www.w3.org/2000/svg">
<path d="M32.9004 22.089C33.7575 23.4059 35.1941 24.1613 36.6947 24.0805C38.4637 24.0805 39.766 22.8687 39.766 21.2165V20.348H39.7233C38.7534 21.366 37.4328 21.8992 36.0786 21.8143C33.9374 21.879 31.9305 20.6954 30.8386 18.7282C29.7406 16.7569 29.7193 14.305 30.7837 12.3135C31.8421 10.3261 33.8276 9.10618 35.9688 9.13041C37.3474 9.03751 38.7046 9.55052 39.7203 10.5483H39.763V9.35662H42.7886V21.1721C42.7886 24.6056 40.254 26.9889 36.6916 26.9889C34.3553 27.1222 32.1013 26.0477 30.6373 24.1047L32.8974 22.089H32.9004ZM39.6379 14.7372C39.6379 13.3638 38.1861 12.1035 36.5666 12.1035C34.52 12.1035 33.1536 13.4324 33.1536 15.4239C33.0926 16.3691 33.422 17.2942 34.0564 17.9486C34.6877 18.607 35.5601 18.9302 36.4385 18.8332C38.2075 18.8332 39.6379 17.6416 39.6379 16.1551V14.7332V14.7372ZM50.7613 9.01327C54.4519 9.01327 57.1389 11.8288 57.1389 15.4239C57.1389 19.019 54.4519 21.8345 50.7613 21.8345C48.5318 21.988 46.4059 20.8004 45.2561 18.7565C44.1001 16.7044 44.1001 14.1394 45.2561 12.0913C46.4059 10.0474 48.5318 8.85977 50.7613 9.01327ZM50.7613 11.9863C48.9923 12.0065 47.571 13.5496 47.5863 15.4401C47.5863 17.3265 49.0228 18.8575 50.7918 18.8615C52.5608 18.8494 53.9883 17.3144 53.9822 15.4239C54.0218 14.4989 53.6955 13.594 53.0793 12.9396C52.4663 12.2852 51.6245 11.9419 50.7613 11.9904V11.9863ZM58.7737 9.35662H61.7993V10.4311H61.8451C62.8333 9.45357 64.1448 8.9446 65.4899 9.01327C68.7412 9.0779 71.3459 11.9217 71.352 15.4118C71.3581 18.9059 68.7595 21.7578 65.5082 21.8345C64.2272 21.8669 62.9736 21.4144 61.9701 20.554H61.9274V26.6456H58.7707V9.35662H58.7737ZM65.0019 12.0146C63.3366 12.0146 61.9305 13.2709 61.9305 14.6483V16.1833C61.9305 17.6497 63.2969 18.8615 65.0202 18.8615C66.7861 18.8494 68.2074 17.3144 68.1983 15.4279C68.1983 13.5415 66.7678 12.0146 65.0019 12.0146ZM77.4337 14.2565C79.5016 13.9576 80.1208 13.6385 80.1208 13.0204C80.1208 12.2206 79.3308 11.7399 78.1169 11.7399C76.8054 11.6228 75.6098 12.5478 75.3018 13.9131L72.3158 13.2507C72.7428 10.7785 75.1096 9.01327 78.0315 9.01327C81.3347 9.01327 83.3843 10.823 83.3843 13.7758V21.4952H80.5478V20.1662H80.5021C79.5443 21.3296 78.1322 21.9477 76.6865 21.8386C74.1916 21.8386 72.4653 20.3723 72.4653 18.2192C72.4653 15.9531 73.8713 14.7857 77.4337 14.2565ZM80.377 15.537H80.3343C80.0567 15.9733 79.4589 16.2237 77.9248 16.5226C76.0704 16.8902 75.4085 17.278 75.4085 17.9849C75.4085 18.6918 75.9636 19.0392 77.1562 19.0392C78.9709 19.0392 80.377 18.1465 80.377 16.9791V15.537ZM89.3898 20.8287L84.1651 9.35662H87.6421L91.0734 17.278H91.1161L94.5047 9.35662H98L90.1767 26.6496H86.6997L89.3868 20.8287H89.3898Z" fill="black"/>
</svg>
