<svg width="128" height="36" viewBox="0 0 128 36" fill="none" xmlns="http://www.w3.org/2000/svg">
<path fill-rule="evenodd" clip-rule="evenodd" d="M31.2005 25.5898C31.2005 27.6396 29.8609 28.7918 27 28.8809V32.0001C30.2446 32.0001 34.3508 30.2941 34.3508 25.5898V10.2866H31.1937V25.5898H31.2005Z" fill="#009BD2"/>
<path fill-rule="evenodd" clip-rule="evenodd" d="M49.8471 16.8813C49.8471 18.8483 48.9248 19.5995 46.9525 19.5995H40.3017C40.5777 21.2673 41.7019 22.8906 44.1522 22.8906C45.5793 22.8397 46.9525 22.3941 48.117 21.6174L49.7259 24.0491C48.1305 25.2268 46.1716 25.8825 44.1522 25.9016C38.6323 25.9016 36.9629 21.993 36.9629 17.9508C36.9629 13.9086 38.6121 10 43.4117 10C48.4805 10 49.8538 14.4496 49.8538 16.8813H49.8471ZM40.2748 16.6012H46.5284C46.3265 14.6852 45.485 13.011 43.405 13.011C41.3249 13.011 40.4835 14.6852 40.2748 16.6012Z" fill="#009BD2"/>
<path fill-rule="evenodd" clip-rule="evenodd" d="M58.4431 10C54.5052 10 52.479 13.151 52.479 13.151V25.7233H55.6428V14.1632C56.3631 13.4184 57.3796 12.9983 58.4431 13.011C60.1664 13.0174 61.5531 14.3414 61.5464 15.971C61.5464 15.9838 61.5464 16.0029 61.5464 16.0156V25.7233H64.7102V16.0156C64.7102 13.0937 62.5965 10 58.4499 10" fill="#009BD2"/>
<path fill-rule="evenodd" clip-rule="evenodd" d="M68.2173 25.7233H71.3811V10.1782H68.2173V25.7233Z" fill="#009BD2"/>
<path fill-rule="evenodd" clip-rule="evenodd" d="M95.2853 16.3021H95.3122C94.2351 16.0156 92.835 15.4936 92.835 14.4242C92.835 13.6476 93.6764 13.0046 95.2516 13.0046C96.6652 13.081 98.0452 13.4248 99.3107 14.0104L100.327 11.2668C98.752 10.5029 97.022 10.07 95.2516 10C92.5119 10 89.6442 11.3559 89.6442 14.4242C89.6442 17.2569 92.2089 18.6701 94.7467 19.2812C96.1132 19.5677 97.8432 20.1215 97.8432 21.21C97.8432 22.3686 96.4364 22.8842 95.0699 22.8842C93.7033 22.8842 91.8858 22.0503 90.4789 21.3246L89.2471 24.1892C91.0175 25.1822 93.01 25.7679 95.0699 25.8952C97.9509 25.8952 101 24.5648 101 21.21C101 17.8553 97.6615 16.875 95.2785 16.2957" fill="#009BD2"/>
<path fill-rule="evenodd" clip-rule="evenodd" d="M84.0354 19.8859C84.0825 21.4965 82.7429 22.8396 81.0398 22.8906C79.3368 22.9351 77.9164 21.6683 77.8626 20.0578C77.8626 20.0005 77.8626 19.9432 77.8626 19.8859V10.1782H74.6987V19.8859C74.6987 22.7951 76.8057 25.8824 80.9187 25.8952H80.9523C85.072 25.8824 87.1723 22.7951 87.1723 19.8859V10.1782H84.0219V19.8859H84.0354Z" fill="#009BD2"/>
</svg>
