<svg width="128" height="36" viewBox="0 0 128 36" fill="none" xmlns="http://www.w3.org/2000/svg">
<path fill-rule="evenodd" clip-rule="evenodd" d="M27.8973 9.17651H31.0581C31.2984 9.17651 31.4805 9.38072 31.4513 9.61309L29.9802 19.4361C29.9219 19.8163 30.2278 20.1543 30.6211 20.1543H36.1706C36.3308 20.1543 36.4473 20.2881 36.4255 20.436L35.9958 23.2596C35.9739 23.4075 35.8428 23.5131 35.6899 23.5131H29.4194C27.555 23.5131 25.7635 22.0414 26.0256 20.2599L27.504 9.50747C27.5332 9.31734 27.7007 9.17651 27.8973 9.17651Z" fill="#E82529"/>
<path fill-rule="evenodd" clip-rule="evenodd" d="M38.442 13.0908L36.9927 23.1039C36.9709 23.2658 37.0947 23.4066 37.2622 23.4066H40.321C40.5395 23.4066 40.7215 23.2517 40.7507 23.0475L42.1854 13.1964C42.2145 12.9711 42.0324 12.7668 41.7921 12.7668H38.8207C38.6241 12.7668 38.4566 12.9077 38.4274 13.0908" fill="#E82529"/>
<path fill-rule="evenodd" clip-rule="evenodd" d="M44.5268 23.7143C43.1373 23.665 42.624 23.5171 42.624 23.5171C42.7551 22.6158 43.8111 15.5742 43.9058 15.1447C44.0077 14.687 44.1024 13.9124 44.5175 13.5251C45.0128 13.0674 45.7702 12.8069 49.5718 12.7999C53.4462 12.7858 54.1964 15.4757 53.9925 17.222C53.8177 18.7148 53.2423 22.4116 53.0748 23.4397C53.053 23.5946 52.9073 23.7143 52.7471 23.7143H49.7539C49.5354 23.7143 49.3679 23.5312 49.397 23.3199C49.55 22.2848 49.9578 19.5386 50.0889 18.7429C50.2564 17.7571 50.3948 16.6657 50.1253 16.2361C49.8485 15.8066 49.0329 15.4757 47.4598 15.7432L46.2945 23.665C46.2945 23.665 45.5118 23.7143 44.5268 23.7143Z" fill="#E82529"/>
<path fill-rule="evenodd" clip-rule="evenodd" d="M57.4357 8.60547H60.7567C60.8805 8.60547 60.9752 8.71109 60.9606 8.8308L58.8923 23.2519C58.8777 23.3575 58.783 23.442 58.6665 23.442H55.3893C55.2509 23.442 55.1489 23.3294 55.1635 23.1956L57.2318 8.78151C57.2464 8.68293 57.3338 8.61251 57.4357 8.61251" fill="#E82529"/>
<path fill-rule="evenodd" clip-rule="evenodd" d="M60.0068 17.2953L63.7574 13.0633C63.874 12.9295 64.0487 12.8521 64.2308 12.8521H67.5226C67.763 12.8521 67.8868 13.1267 67.7266 13.2957L63.8885 17.4009L67.3988 24.6678C67.5299 24.9354 67.326 25.2381 67.0201 25.2381H64.0415C63.8885 25.2381 63.7429 25.1537 63.6773 25.0128L59.9995 17.2953H60.0068Z" fill="#E82529"/>
<path fill-rule="evenodd" clip-rule="evenodd" d="M42.8428 10.0566C42.5733 11.1484 41.5534 11.9583 40.4826 11.9583C39.4117 11.9583 38.5959 11.0709 38.8654 9.97917C39.1349 8.88746 40.0164 8 41.2839 8C42.3547 8 43.105 8.95789 42.8355 10.0496" fill="#E82529"/>
<path fill-rule="evenodd" clip-rule="evenodd" d="M90.7783 10.0567C90.5088 11.1484 89.489 11.9583 88.4181 11.9583C87.3473 11.9583 86.5314 11.0709 86.8009 9.97917C87.0705 8.88746 87.9519 8 89.2194 8C90.2903 8 91.0406 8.95789 90.7711 10.0496" fill="#E82529"/>
<path fill-rule="evenodd" clip-rule="evenodd" d="M78.5792 17.7245H76.5692C76.4964 17.7245 76.4454 17.6541 76.4672 17.5836L78.2151 13.3024C78.2515 13.2179 78.3753 13.239 78.3826 13.3235L78.7759 17.5062C78.7832 17.6189 78.6958 17.7174 78.5792 17.7174M83.4514 23.0901L81.2083 10.1548C81.1136 9.59148 80.6039 9.17603 80.0067 9.17603H77.7563C77.0717 9.17603 76.4454 9.56331 76.1613 10.1618L70.1166 23.1113C70.0292 23.3014 70.1749 23.5126 70.3861 23.5126L73.525 23.4915C73.7435 23.4915 73.9328 23.3648 74.0202 23.1746L75.0616 20.8087C75.0908 20.7453 75.1563 20.7031 75.2292 20.7031H79.0308C79.1254 20.7031 79.2056 20.7735 79.2128 20.858L79.4386 23.0972C79.4677 23.3577 79.6935 23.5549 79.963 23.5549H83.0436C83.2985 23.5549 83.4951 23.3366 83.4514 23.0901Z" fill="#E82529"/>
<path fill-rule="evenodd" clip-rule="evenodd" d="M81.9507 25.4419L82.679 27.6037C82.8101 27.9558 82.9047 28.0403 83.1596 27.9839C84.0773 27.8008 86.2912 27.1671 87.3691 25.7588C88.782 23.921 88.9713 20.6678 89.2262 19.013C89.4301 17.654 89.8817 14.2951 90.0346 13.1615C90.0637 12.9572 89.8962 12.7742 89.685 12.7742H86.8739C86.6262 12.7742 86.415 12.9502 86.3786 13.1896C86.1529 14.8021 85.3372 20.5903 85.1915 21.386C85.024 22.3225 84.9949 23.6675 83.5602 24.4702C82.8465 24.8716 82.4751 24.949 82.1983 25.0758C82.0527 25.1391 81.8924 25.2096 81.958 25.449" fill="#E82529"/>
<path fill-rule="evenodd" clip-rule="evenodd" d="M97.4419 20.4566C97.4419 20.4566 95.9708 20.9354 95.2717 20.4284C94.5652 19.9214 94.507 18.8722 94.9221 17.3724C95.3299 15.8725 96.3641 15.619 96.8011 15.5909C97.238 15.5627 98.0683 15.7599 98.0683 15.7599L97.4492 20.4495L97.4419 20.4566ZM101.506 13.1545C100.559 12.9292 98.964 12.4222 96.3932 12.6053C94.0263 12.7743 91.3535 13.8305 90.851 18.33C90.3485 22.8296 92.4896 23.7028 95.5557 23.8295C97.8061 23.921 99.5685 23.3295 100.355 22.9986C100.625 22.8859 100.821 22.6395 100.858 22.3578L101.994 13.6897C102.037 13.3446 101.863 13.239 101.506 13.1545Z" fill="#E82529"/>
</svg>
