<svg width="128" height="36" viewBox="0 0 128 36" fill="none" xmlns="http://www.w3.org/2000/svg">
<rect width="58" height="26" transform="translate(35 5)" fill="white"/>
<path d="M54.6036 9.02246H68.6895V17.7975H62.7797L68.6895 23.4112H63.6689L57.8676 17.7975V23.4112H54.5928V14.5012H64.9159V12.375H54.5928V9.03371H54.6036V9.02246Z" fill="black"/>
<path d="M70.1536 23.4113H73.591V9H70.1536V23.4113Z" fill="black"/>
<path d="M42.5892 19.9237V9.02246H39.8892C39.4012 9.02246 39.0217 9.40496 39.0217 9.87746C39.0217 12.4425 39 20.0137 39 22.5337C39 22.995 39.3687 23.4112 39.8241 23.4112H47.8267V19.935H42.5784H42.5892V19.9237Z" fill="black"/>
<path d="M49.6055 26.9999H53.1297V19.7773H49.6055V26.9999Z" fill="black"/>
<path d="M44.3022 9.02246V12.6225H49.6048V18H53.129V9.89996C53.129 9.43871 52.7603 9.04496 52.3048 9.02246C50.5807 9.02246 46.5035 9.02246 44.3022 9.02246Z" fill="black"/>
<path d="M88.9998 12.6004V9.03418H75.0874V17.9779H84.3587V19.7554H75.0874V23.3554H88.9998V14.4117H79.7285V12.6004H88.9998Z" fill="black"/>
<path d="M54.6036 9.02246H68.6895V17.7975H62.7797L68.6895 23.4112H63.6689L57.8676 17.7975V23.4112H54.5928V14.5012H64.9159V12.375H54.5928V9.03371H54.6036V9.02246Z" fill="black"/>
<path d="M70.1536 23.4113H73.591V9H70.1536V23.4113Z" fill="black"/>
<path d="M42.5892 19.9237V9.02246H39.8892C39.4012 9.02246 39.0217 9.40496 39.0217 9.87746C39.0217 12.4425 39 20.0137 39 22.5337C39 22.995 39.3687 23.4112 39.8241 23.4112H47.8267V19.935H42.5784H42.5892V19.9237Z" fill="black"/>
<path d="M49.6055 26.9999H53.1297V19.7773H49.6055V26.9999Z" fill="black"/>
<path d="M44.3022 9.02246V12.6225H49.6048V18H53.129V9.89996C53.129 9.43871 52.7603 9.04496 52.3048 9.02246C50.5807 9.02246 46.5035 9.02246 44.3022 9.02246Z" fill="black"/>
<path d="M88.9998 12.6004V9.03418H75.0874V17.9779H84.3587V19.7554H75.0874V23.3554H88.9998V14.4117H79.7285V12.6004H88.9998Z" fill="black"/>
</svg>
