<svg width="128" height="36" viewBox="0 0 128 36" fill="none" xmlns="http://www.w3.org/2000/svg">
<g clip-path="url(#clip0_12831_243)">
<path d="M73.4248 10.9071L71.0266 15.6638C70.1215 14.8605 69.016 14.2694 67.6054 14.2694C64.2679 14.2694 62.9118 16.9884 62.9118 18.9035C62.9118 20.325 63.7635 22.4224 66.7332 22.4224C67.9794 22.4224 69.7518 21.4747 70.2617 21.0436L67.8895 26.5623C66.7586 26.809 66.3876 26.9615 65.4304 26.9941C60.1147 27.1676 57.967 23.5992 57.9683 19.9528C57.972 15.1331 61.8932 9.27067 68.3944 9.27067C68.7927 9.27067 69.2803 9.42116 69.6966 9.58792L70.1178 8.99951" fill="#0060AF"/>
<path d="M83.3214 9.14917L84.0007 26.4387H78.9461L78.943 23.4737H75.4964L74.3618 26.4387H68.8804L74.6111 14.0923L73.319 14.0829L75.7743 9.14917H83.3214ZM78.9101 14.4387L76.9616 19.468H78.9691" fill="#0060AF"/>
<path d="M54.7779 9.14926C57.281 9.16485 58.6954 10.6494 58.6954 12.7943C58.6954 14.7717 57.2035 16.5213 55.5664 17.4263C57.2525 18.1035 57.3983 19.7657 57.3983 20.9425C57.3983 23.7842 54.7891 26.4395 51.397 26.4395H44L46.8852 14.2646L45.6998 14.2572L48.1228 9.14926C48.1228 9.14926 52.7426 9.13367 54.7779 9.14926ZM52.322 16.1593C52.84 16.1593 53.7537 16.0163 53.9826 14.9208C54.2333 13.7325 53.3753 13.6999 52.9634 13.6999L51.4932 13.6932L50.9801 16.1593H52.322ZM50.2432 19.2146L49.5664 22.0563H51.2978C51.9789 22.0563 52.9076 21.6868 53.1352 20.7622C53.3598 19.8348 52.7109 19.2146 52.0323 19.2146" fill="#0060AF"/>
</g>
<defs>
<clipPath id="clip0_12831_243">
<rect width="40" height="18" fill="white" transform="translate(44 9)"/>
</clipPath>
</defs>
</svg>
