<svg width="128" height="36" viewBox="0 0 128 36" fill="none" xmlns="http://www.w3.org/2000/svg">
<path d="M25.1064 17.8375C25.1064 16.3862 25.0768 15.1649 25 14.0735H27.7544L27.8845 15.9437H27.9613C28.582 14.9584 29.7287 13.7903 31.8625 13.7903C33.5293 13.7903 34.8238 14.7283 35.3735 16.1266H35.4267C35.87 15.4245 36.3902 14.9053 36.9872 14.5454C37.6905 14.0499 38.4944 13.7903 39.5347 13.7903C41.639 13.7903 43.7669 15.218 43.7669 19.2652V26.7106H40.646V19.7313C40.646 17.631 39.9189 16.3862 38.388 16.3862C37.2945 16.3862 36.4847 17.1649 36.1537 18.0735C36.0769 18.3862 36 18.7755 36 19.1354V26.7106H32.8791V19.395C32.8791 17.631 32.1757 16.3862 30.698 16.3862C29.504 16.3862 28.6943 17.3183 28.4105 18.2033C28.2805 18.5159 28.2273 18.8817 28.2273 19.2416V26.7165H25.1064V17.8434V17.8375Z" fill="#003A70"/>
<path d="M52.798 20.5396C50.5341 20.4865 48.3826 20.9762 48.3826 22.8995C48.3826 24.1443 49.1865 24.7166 50.2031 24.7166C51.474 24.7166 52.4138 23.8847 52.6975 22.9762C52.7744 22.7461 52.8039 22.4806 52.8039 22.2741V20.5337L52.798 20.5396ZM55.9189 23.6782C55.9189 24.8169 55.9721 25.9319 56.1021 26.7107H53.2177L53.0108 25.3065H52.928C52.1478 26.2918 50.8238 26.9939 49.1865 26.9939C46.6389 26.9939 45.2085 25.1532 45.2085 23.2299C45.2085 20.0381 48.0398 18.4334 52.7212 18.457V18.2505C52.7212 17.4186 52.3842 16.044 50.1499 16.044C48.9028 16.044 47.6024 16.4334 46.7453 16.9821L46.1188 14.9054C47.0527 14.3331 48.6959 13.7844 50.6937 13.7844C54.7486 13.7844 55.9189 16.3567 55.9189 19.106V23.6723V23.6782Z" fill="#003A70"/>
<path d="M58.1303 17.8375C58.1303 16.3862 58.1008 15.165 58.0239 14.0735H60.8257L60.9793 15.9673H61.0562C61.6 14.9821 62.9831 13.7844 65.0874 13.7844C67.298 13.7844 69.5855 15.2122 69.5855 19.2063V26.7048H66.3877V19.572C66.3877 17.7549 65.7139 16.3803 63.9702 16.3803C62.6994 16.3803 61.8128 17.2888 61.4758 18.2505C61.3754 18.5396 61.3458 18.929 61.3458 19.2888V26.7107H58.1244V17.8375H58.1303Z" fill="#003A70"/>
<path d="M80.2543 19.3422C80.2543 19.0826 80.2247 18.7758 80.1774 18.5162C79.8937 17.2714 78.8771 16.2566 77.423 16.2566C75.3719 16.2566 74.2252 18.0737 74.2252 20.4336C74.2252 22.7935 75.366 24.4336 77.3993 24.4336C78.6997 24.4336 79.8405 23.5487 80.1538 22.174C80.2306 21.8909 80.2602 21.5723 80.2602 21.236V19.3422H80.2543ZM83.452 9V23.1593C83.452 24.4572 83.5052 25.8614 83.5584 26.7109H80.6976L80.5675 24.7168H80.5144C79.7637 26.115 78.221 27 76.3827 27C73.3682 27 70.9743 24.4336 70.9743 20.5398C70.9506 16.3097 73.5987 13.7906 76.6428 13.7906C78.3805 13.7906 79.6336 14.5162 80.2011 15.4543H80.2543V9H83.452Z" fill="#003A70"/>
<path d="M85.7104 14.0735H88.9378V26.7048H85.7104V14.0735Z" fill="#003A70"/>
<path d="M91.1967 18.1503C91.1967 16.4394 91.1731 15.2182 91.0903 14.0795H93.8743L93.9748 16.4925H94.0812C94.7018 14.7049 96.1855 14.0795 97.539 14.0795C97.8523 14.0795 98.0356 14.0264 98.2897 14.0795V16.8819C98.0296 16.8288 97.7459 16.7757 97.3499 16.7757C95.819 16.7757 94.7787 17.7609 94.495 19.1887C94.4418 19.4718 94.3945 19.814 94.3945 20.1798V26.7167H91.1967V18.1562V18.1503Z" fill="#003A70"/>
<path d="M99.7788 14.0735H103V26.7048H99.7788V14.0735Z" fill="#003A70"/>
</svg>
