<svg width="128" height="36" viewBox="0 0 128 36" fill="none" xmlns="http://www.w3.org/2000/svg">
<path d="M101.108 7H26.8924C24.7427 7 23 8.62113 23 10.6209V25.3791C23 27.3789 24.7427 29 26.8924 29H101.108C103.257 29 105 27.3789 105 25.3791V10.6209C105 8.62113 103.257 7 101.108 7Z" fill="#FFBD00"/>
<path d="M67.6006 19.6744C67.6006 20.3836 67.629 21.0928 67.5959 21.8005C67.498 23.8488 65.9574 25.0896 63.5866 25.0543C61.3563 25.0205 59.8883 23.7049 59.882 21.686C59.8694 18.2633 59.8773 14.8421 59.8915 11.4194C59.8915 11.0846 59.6784 10.6133 60.4234 10.6162C61.1306 10.6192 61.1685 10.9965 61.1653 11.4752C61.1606 12.3797 61.1827 13.2842 61.1606 14.1887C61.1495 14.6556 61.1858 14.8729 61.7809 14.5969C62.6727 14.1828 63.6356 14.1197 64.6252 14.2841C66.3647 14.5734 67.5296 15.7627 67.6006 17.4028C67.6322 18.159 67.6053 18.9182 67.6053 19.6758H67.6006V19.6744ZM61.1842 19.6112H61.1685C61.1685 20.294 61.1574 20.9782 61.1685 21.661C61.1937 23.0266 62.0571 23.8136 63.544 23.8429C65.2677 23.8767 66.221 23.1895 66.2858 21.7799C66.3426 20.5377 66.3268 19.2911 66.3173 18.0474C66.3015 16.0535 65.3387 15.2576 63.2094 15.4573C61.9798 15.5718 61.2079 16.3368 61.1827 17.488C61.1669 18.1957 61.1795 18.9035 61.1795 19.6112H61.1827H61.1842Z" fill="black"/>
<path d="M77.2773 20.7814C77.2773 22.003 77.2852 23.2262 77.2694 24.4478C77.2678 24.6431 77.4146 24.9221 77.1163 25.0263C76.829 25.1262 76.5891 24.9705 76.4755 24.7297C76.2876 24.3347 76.0698 24.3436 75.6973 24.5491C74.5434 25.1878 73.3012 25.2055 72.04 24.8912C70.2769 24.4522 69.3535 23.0852 69.5461 21.2307C69.7024 19.7286 71.0125 18.5525 72.6998 18.4585C73.5901 18.4086 74.4866 18.4188 75.3784 18.4453C75.8662 18.46 75.9972 18.294 76.0051 17.855C76.043 15.8316 74.1836 14.7451 72.2373 15.676C71.7401 15.9139 71.4197 16.3103 71.2966 16.7993C71.134 17.4409 70.6021 17.2589 70.2232 17.2045C69.6408 17.1208 69.9881 16.6774 70.0528 16.441C70.4774 14.9037 72.2105 13.9874 74.1646 14.2268C76.0572 14.4573 77.2473 15.6099 77.2694 17.2603C77.2852 18.4335 77.2726 19.6067 77.2726 20.7799H77.2773V20.7814ZM75.994 20.9752H75.9435C75.9435 20.658 75.9388 20.3409 75.9435 20.0237C75.9483 19.758 75.8425 19.617 75.5315 19.6229C74.5608 19.6376 73.5853 19.5832 72.6225 19.664C71.6107 19.7477 70.9604 20.4539 70.8309 21.4304C70.7094 22.3481 71.2271 23.301 72.0274 23.6402C74.1693 24.5462 76.0051 23.4479 75.9925 21.2689V20.9767H75.994V20.9752Z" fill="black"/>
<path d="M45.5036 19.7443C44.6355 19.7443 43.7673 19.7575 42.8992 19.7384C42.4904 19.7296 42.3341 19.8691 42.3531 20.2509C42.3752 20.7149 42.3294 21.1803 42.3483 21.6443C42.3988 22.9673 43.166 23.7073 44.5929 23.8351C46.1824 23.9775 47.2304 23.3887 47.4672 22.0598C47.5761 21.4505 47.8476 21.336 48.378 21.4138C49.0551 21.5122 48.8215 22.007 48.7615 22.3403C48.4348 24.1698 46.7111 25.2138 44.3656 25.0406C42.5141 24.904 41.1203 23.5854 41.0808 21.8748C41.0477 20.408 41.043 18.9382 41.0793 17.4713C41.1282 15.4847 42.6214 14.2307 44.9086 14.2028C47.1152 14.1764 48.6652 15.4245 48.7963 17.3568C48.8357 17.9412 48.7915 18.5314 48.8184 19.1173C48.8405 19.6063 48.6053 19.756 48.1065 19.7413C47.2399 19.7164 46.3702 19.734 45.5021 19.734V19.7428L45.5036 19.7443ZM44.8107 18.5109V18.4874C45.5178 18.4874 46.2234 18.4756 46.9305 18.4918C47.3741 18.5021 47.5051 18.3112 47.5304 17.9221C47.6251 16.4655 46.6496 15.4406 45.0696 15.3804C43.4611 15.3173 42.4304 16.21 42.3436 17.6754C42.3089 18.2686 42.413 18.5975 43.1628 18.5212C43.7058 18.4654 44.2614 18.5109 44.8107 18.5109Z" fill="black"/>
<path d="M31.4056 19.4133C31.4056 17.8715 31.3993 16.3313 31.412 14.7895C31.412 14.5913 31.2936 14.3064 31.5777 14.2066C31.8744 14.1009 32.1033 14.3123 32.2106 14.5296C32.43 14.9745 32.6589 14.9011 33.0535 14.6941C34.7077 13.8248 36.6129 13.9687 37.9135 15.0245C38.6854 15.6514 39.1274 16.4487 39.1337 17.4017C39.1495 19.7011 39.1305 22.002 39.1242 24.3014C39.1242 24.6875 39.1163 25.0223 38.5149 25.0164C37.9009 25.0091 37.8425 24.6831 37.8425 24.2514C37.8362 22.1224 37.833 19.9948 37.811 17.8657C37.7889 15.8614 36.1252 14.8321 34.0874 15.5472C33.2429 15.8438 32.7189 16.5721 32.7157 17.503C32.7079 19.7539 32.7157 22.0049 32.711 24.2558C32.711 24.6332 32.831 25.0355 32.1428 25.0664C31.4451 25.0972 31.3599 24.7433 31.3599 24.2588V19.4148H31.4056V19.4133Z" fill="black"/>
<path d="M58.4787 19.5834C58.4787 20.1943 58.4535 20.8066 58.4834 21.4174C58.6334 24.5493 55.5081 25.5126 53.3219 24.9076C51.7909 24.4833 50.8201 23.4275 50.7491 21.9181C50.6781 20.4292 50.6859 18.9344 50.7491 17.4456C50.8106 16.0007 51.5541 14.9288 53.0694 14.4325C54.7457 13.8834 56.6272 14.2828 57.6406 15.3752C58.1536 15.9288 58.4582 16.566 58.4598 17.309C58.4598 18.0667 58.4598 18.8243 58.4598 19.5834H58.4787ZM57.1781 19.651H57.1654C57.1654 18.8948 57.2081 18.1357 57.156 17.3824C57.066 16.1094 56.1474 15.4207 54.6273 15.4178C53.0978 15.4149 52.1507 16.0918 52.0576 17.3413C51.944 18.8522 51.9534 20.369 52.0513 21.8784C52.135 23.1779 53.0836 23.8563 54.6605 23.8401C56.2089 23.824 57.1134 23.0942 57.1733 21.7757C57.2049 21.0694 57.1797 20.3602 57.1797 19.6525L57.1781 19.651Z" fill="black"/>
<path d="M79.1862 19.553C79.1862 17.9393 79.1846 16.3242 79.1893 14.7105C79.1893 14.5064 79.112 14.2494 79.4766 14.2098C79.7544 14.1789 79.9359 14.2714 80.0133 14.524C80.1901 15.1099 80.5168 14.8779 80.8846 14.6899C82.6745 13.7752 84.6555 13.9939 85.964 15.2376C86.5764 15.8191 86.9284 16.5062 86.9284 17.3373C86.9253 19.6852 86.9253 22.033 86.9347 24.3809C86.9347 24.7333 86.919 25.0035 86.4154 25.0035C85.9466 25.0035 85.6767 24.8978 85.6767 24.3927C85.6799 22.1916 85.6641 19.9906 85.642 17.7896C85.6215 15.7897 83.5174 14.6767 81.628 15.6664C80.8735 16.0613 80.5468 16.6869 80.5484 17.4915C80.5515 19.7909 80.52 22.0888 80.531 24.3882C80.5342 25.0255 80.209 25.1312 79.6345 25.0358C79.2177 24.9668 79.1799 24.7186 79.1814 24.3956C79.1909 22.7819 79.1862 21.1667 79.1878 19.553H79.1862Z" fill="black"/>
<path d="M88.9077 17.791C88.9077 15.6913 88.8951 13.5916 88.9203 11.4919C88.925 11.1586 88.6378 10.6285 89.4554 10.6212C90.2509 10.6138 90.1878 11.0837 90.1894 11.5433C90.1973 13.3493 90.1957 15.1569 90.1957 16.9629C90.1957 19.3798 90.1941 21.7966 90.1925 24.2135C90.1925 24.6364 90.243 25.0769 89.5438 25.0578C88.9235 25.0417 88.8556 24.7157 88.8603 24.2341C88.8808 22.0859 88.8698 19.9377 88.8698 17.7881H88.9077V17.791Z" fill="black"/>
<path d="M96.639 14.2299C95.3368 15.8509 94.1829 17.3575 92.9423 18.7979C92.4167 19.4072 92.4024 19.8228 92.9296 20.438C94.1687 21.8843 95.321 23.3952 96.5301 24.9061C95.3194 25.1998 95.1505 25.1425 94.4891 24.3012C93.4048 22.921 92.3298 21.5349 91.2186 20.1737C90.9219 19.8096 90.8635 19.56 91.1823 19.1679C92.3835 17.6864 93.5594 16.1872 94.7086 14.6704C95.1789 14.0508 95.804 14.2373 96.6406 14.2314L96.639 14.2299Z" fill="black"/>
</svg>
