<svg width="128" height="36" viewBox="0 0 128 36" fill="none" xmlns="http://www.w3.org/2000/svg">
<path fill-rule="evenodd" clip-rule="evenodd" d="M51.4241 24.1802C49.6999 25.8676 47.4008 26.7975 45.0217 26.7675C42.6281 26.805 40.3218 25.8751 38.5829 24.1802C35.2144 20.8129 35.1271 15.2707 38.401 11.7984C38.4592 11.7309 38.5247 11.6709 38.5829 11.6109C40.3145 9.90103 42.6281 8.96359 45.029 9.00108C47.4081 8.97108 49.7071 9.90103 51.4314 11.5884C54.8 14.9482 54.8873 20.4904 51.6279 23.9627C51.5624 24.0302 51.4969 24.0977 51.4314 24.1652M45.029 11.8959C41.9224 11.8659 39.3832 14.4383 39.3541 17.6331C39.3541 17.7231 39.3541 17.8056 39.3541 17.8955C39.3541 21.1204 41.886 23.7302 45.0144 23.7302C48.1429 23.7302 50.6748 21.1204 50.6748 17.8955C50.7839 14.6932 48.3539 12.0084 45.2473 11.8959C45.1745 11.8959 45.1017 11.8959 45.029 11.8959ZM72.6758 11.0935L65.7568 27L65.364 26.925C63.385 26.5575 62.9849 26.0476 62.0609 23.9777L56.8735 12.3309H54.9236V9.50355H62.2937V12.3309H60.533L64.7019 21.9678L68.7471 12.3309H66.5644V9.50355H72.6758V11.0935ZM89.4094 24.1802C85.7863 27.63 80.1987 27.63 76.5755 24.1802C73.2069 20.8129 73.1269 15.2632 76.3936 11.7909C76.4518 11.7234 76.5173 11.6634 76.5755 11.6034C80.1987 8.15363 85.7863 8.15363 89.4094 11.6034C92.778 14.9557 92.8726 20.4829 89.6277 23.9552C89.555 24.0302 89.4822 24.1052 89.4094 24.1802ZM83.0434 11.8959C79.9368 11.8659 77.3903 14.4383 77.3612 17.6481C77.3612 17.7306 77.3612 17.8131 77.3612 17.8955C77.3612 21.1204 79.8931 23.7302 83.0216 23.7302C86.15 23.7302 88.6819 21.1204 88.6819 17.8955C88.791 14.7007 86.3756 12.0159 83.2762 11.9034C83.1962 11.9034 83.1234 11.9034 83.0434 11.9034" fill="#4B2489"/>
</svg>
