<svg width="128" height="36" viewBox="0 0 128 36" fill="none" xmlns="http://www.w3.org/2000/svg">
<path fill-rule="evenodd" clip-rule="evenodd" d="M52.9642 12.7506C52.9642 13.2573 52.7031 13.6882 52.1792 14.0417C51.7193 14.3481 51.2021 14.5013 50.6277 14.5013C50.0533 14.5013 49.4973 14.3548 49.0375 14.0602C48.527 13.7303 48.271 13.2994 48.271 12.7708C48.271 12.2423 48.5203 11.7861 49.0189 11.4444C49.4771 11.1481 50.0145 11 50.626 11C51.2375 11 51.7378 11.1532 52.1977 11.4595C52.7081 11.8013 52.9642 12.2305 52.9642 12.7489" fill="#007DC5"/>
<path fill-rule="evenodd" clip-rule="evenodd" d="M104.12 11H108.097V18.2197L111.003 14.8598H115.791L112.147 18.4116L116 25H111.613L109.558 20.9331L108.097 22.364V25H104.12" fill="#007DC5"/>
<path fill-rule="evenodd" clip-rule="evenodd" d="M92.0098 15.0739H95.5524V16.6982C96.0813 16.0384 96.617 15.5704 97.1594 15.286C97.7019 15.0032 98.3622 14.8584 99.1405 14.8584C100.193 14.8584 101.015 15.1732 101.612 15.7994C102.205 16.4239 102.501 17.3884 102.501 18.6963V24.9986H98.6806V19.5464C98.6806 18.9253 98.5661 18.4842 98.337 18.2267C98.1045 17.9658 97.7827 17.8378 97.3633 17.8378C96.9051 17.8378 96.5277 18.0129 96.243 18.3613C95.9567 18.7081 95.8135 19.336 95.8135 20.2382V24.9986H92.0098" fill="#007DC5"/>
<path fill-rule="evenodd" clip-rule="evenodd" d="M70.1193 24.9983H65.8354V11H70.1193V11.5033C70.756 11.1565 71.5579 11 72.727 11C75.3532 11 77.6846 12.0689 77.693 14.3195C77.7014 16.2586 76.5863 16.9572 75.0836 17.0599C76.9855 17.2804 78.7223 18.4503 78.7223 20.4248C78.7223 23.7308 76.5256 25 72.7842 25C71.6118 25 70.9683 24.8418 70.121 24.5388V25L70.1193 24.9983ZM70.1193 13.7438V16.1374C71.3625 16.1862 73.8068 16.3462 73.8068 14.7689C73.8068 13.1917 71.2429 13.2775 70.1193 13.7438ZM70.1193 18.8273V22.3252C70.5909 22.47 71.0828 22.5491 71.6809 22.5491C72.9948 22.5491 74.5496 21.9549 74.5075 20.5881C74.4418 18.425 71.7651 18.7482 70.1176 18.8273" fill="#007DC5"/>
<path fill-rule="evenodd" clip-rule="evenodd" d="M83.4828 18.3294L79.8761 17.9439C80.0126 17.3025 80.208 16.7976 80.4657 16.4306C80.7218 16.0636 81.089 15.7455 81.5742 15.4745C81.9195 15.2775 82.3979 15.126 83.0027 15.02C83.6074 14.9139 84.2627 14.8584 84.9686 14.8584C86.0989 14.8584 87.0102 14.9224 87.6942 15.052C88.3815 15.1816 88.9508 15.4526 89.4107 15.86C90.1132 16.4828 90.5141 17.619 90.5141 18.5415V24.9986H86.9715V23.8725C86.1949 24.5525 84.6636 25.002 83.1981 24.9986C81.3316 24.9952 79.5662 24.2664 79.5797 22.4501C79.5847 21.6875 79.7987 21.063 80.2383 20.5749C80.678 20.0817 81.4849 19.7198 82.6658 19.4807C84.0842 19.1912 85.0022 18.9875 85.4234 18.8731C85.8412 18.7569 86.2876 18.6021 86.7559 18.4152C86.7559 17.9422 86.6615 17.614 86.4712 17.4237C86.2775 17.2369 85.9422 17.141 85.4571 17.141C84.8405 17.141 84.3773 17.2436 84.0673 17.4439C83.8264 17.6022 83.631 17.8984 83.4811 18.3294M86.7542 20.3476C86.2353 20.5261 85.6946 20.6809 85.1336 20.8173C84.3672 21.0092 83.8786 21.2028 83.6765 21.3896C83.4642 21.5849 83.3615 21.8037 83.3615 22.0511C83.3615 22.3339 83.4659 22.5629 83.6714 22.743C83.8803 22.9214 84.1836 23.0106 84.5862 23.0106C84.9888 23.0106 85.3964 22.9147 85.7603 22.7211C86.1208 22.5258 86.3785 22.2885 86.5301 22.0124C86.6817 21.733 86.7542 21.3694 86.7542 20.9233" fill="#007DC5"/>
<path fill-rule="evenodd" clip-rule="evenodd" d="M36.7148 15.0739H40.2575V16.6983C40.7864 16.0384 41.3221 15.5705 41.8645 15.2877C42.4069 15.0049 43.0673 14.8601 43.8456 14.8601C44.8984 14.8601 45.7205 15.1749 46.3168 15.7994C46.9098 16.4239 47.2062 17.3884 47.2062 18.6963V24.9969H43.3857V19.5464C43.3857 18.9236 43.2711 18.4843 43.042 18.2267C42.8096 17.9658 42.4878 17.8379 42.07 17.8379C41.6102 17.8379 41.2345 18.0129 40.9498 18.3614C40.6634 18.7081 40.5186 19.336 40.5186 20.2382V24.9969H36.7148" fill="#D71920"/>
<path fill-rule="evenodd" clip-rule="evenodd" d="M54.0112 15.0739H57.5538V16.6983C58.0828 16.0384 58.6185 15.5705 59.1609 15.2877C59.7033 15.0049 60.3637 14.8601 61.1419 14.8601C62.1948 14.8601 63.0169 15.1749 63.6132 15.7994C64.2061 16.4239 64.5026 17.3884 64.5026 18.6963V24.9969H60.6821V19.5464C60.6821 18.9236 60.5675 18.4843 60.3367 18.2267C60.1043 17.9658 59.7825 17.8379 59.3647 17.8379C58.9065 17.8379 58.5292 18.0129 58.2445 18.3614C57.9581 18.7081 57.815 19.336 57.815 20.2382V24.9969H54.0112" fill="#D71920"/>
<path d="M48.5391 24.9963H52.6763V15.0732H48.5391V24.9963Z" fill="#D71920"/>
<path fill-rule="evenodd" clip-rule="evenodd" d="M24.0008 15.816C24.021 20.2666 19.8904 21.7328 16.2821 20.307V24.9984H12V11.0051H16.2821V11.5067C17.0806 11.1717 17.7544 10.9916 18.8258 11.0051C21.7957 11.0371 23.9856 12.3905 24.0024 15.816M16.2838 14.0334V17.7164C18.0846 18.4217 20.0808 18.0564 20.1347 15.6022C20.1701 13.9627 18.2396 12.8921 16.2838 14.0334Z" fill="#D71920"/>
<path fill-rule="evenodd" clip-rule="evenodd" d="M28.349 18.3294L24.7424 17.9422C24.8788 17.3026 25.0742 16.7976 25.332 16.4306C25.588 16.0637 25.9552 15.7455 26.4387 15.4762C26.784 15.2792 27.2625 15.1278 27.8672 15.0217C28.472 14.9157 29.1273 14.8601 29.8331 14.8601C30.9634 14.8601 31.8748 14.9241 32.5587 15.0537C33.246 15.1833 33.8154 15.456 34.2752 15.8617C34.9777 16.4845 35.3803 17.6207 35.3803 18.5432V24.9986H31.8377V23.8742C31.0611 24.5525 29.5299 25.0037 28.0643 24.9986C26.1978 24.9953 24.4324 24.2664 24.4459 22.4518C24.4509 21.6893 24.6649 21.0647 25.1045 20.5766C25.5442 20.0834 26.3511 19.7215 27.532 19.4824C28.9504 19.1929 29.8685 18.9892 30.2913 18.8748C30.709 18.7586 31.1555 18.6038 31.6238 18.4186C31.6238 17.9456 31.5294 17.6174 31.3391 17.4271C31.1453 17.2403 30.8101 17.1443 30.3267 17.1443C29.7084 17.1443 29.2469 17.247 28.9369 17.4473C28.696 17.6056 28.5006 17.9018 28.3507 18.3328M31.6254 20.3493C31.1066 20.5278 30.5642 20.6826 30.0049 20.819C29.2384 21.0109 28.7499 21.2045 28.5478 21.3896C28.3355 21.5849 28.2311 21.8037 28.2311 22.0512C28.2311 22.334 28.3355 22.5629 28.541 22.743C28.7499 22.9214 29.0548 23.0106 29.4557 23.0106C29.8567 23.0106 30.266 22.9147 30.6299 22.7228C30.9904 22.5275 31.2481 22.2902 31.3997 22.0124C31.5513 21.733 31.6254 21.3694 31.6254 20.9234" fill="#D71920"/>
</svg>
