<svg width="128" height="36" viewBox="0 0 128 36" fill="none" xmlns="http://www.w3.org/2000/svg">
<path fill-rule="evenodd" clip-rule="evenodd" d="M79.4098 23.3978C79.4196 23.1876 79.4343 22.8492 79.4441 22.3826V13.471L79.4147 12.6044C79.4098 12.4198 79.4 12.2968 79.3903 12.2301C79.3805 12.1634 79.3658 12.1019 79.3462 12.0455C79.2826 11.825 79.1406 11.6712 78.93 11.5789C78.7342 11.4917 78.4454 11.4507 78.0684 11.4456V11.1482H82.93C83.635 11.1482 84.2763 11.1995 84.8442 11.2918C85.4122 11.3892 85.8724 11.5174 86.22 11.6866C87.2334 12.1891 87.7377 13.0402 87.7328 14.2503C87.7426 15.9783 86.6606 17.0807 84.4134 17.3627L84.0364 17.4243C84.5407 17.4448 85.2261 17.6191 85.5444 17.696C85.8577 17.7729 86.1661 17.8909 86.4697 18.0601C87.6594 18.6856 88.2469 19.6906 88.2371 21.075C88.242 22.7569 87.4586 23.8542 85.8675 24.372C85.5199 24.4746 85.0841 24.5566 84.5554 24.6181C84.0266 24.6797 83.4538 24.7104 82.832 24.7104H78.0635V24.4079C78.6265 24.4028 79.0084 24.3105 79.1797 24.1003C79.2532 24.0285 79.3021 23.9516 79.3364 23.8593C79.3707 23.767 79.3903 23.6132 79.4001 23.3978M80.8982 11.5635V17.2192H82.7929C84.996 17.2038 86.1416 16.2449 86.1514 14.3272C86.1661 12.4608 84.9617 11.5533 82.6313 11.5635H80.8982ZM86.5333 20.9263C86.5235 19.6086 86.0682 18.6754 85.1576 18.1524C84.8834 18.0037 84.5309 17.8909 84.1099 17.8139C83.6888 17.7319 83.2286 17.696 82.7194 17.6909H80.8933V24.29H82.7194C84.0413 24.2951 85.0058 24.0387 85.6031 23.4952C85.9066 23.2337 86.1319 22.8851 86.2934 22.439C86.4501 21.998 86.5284 21.4904 86.5333 20.9212" fill="#3A3A3A"/>
<path fill-rule="evenodd" clip-rule="evenodd" d="M14.525 18.9977V22.3716C14.5201 22.9152 14.5495 23.3151 14.6131 23.5766C14.6817 23.8381 14.8237 24.0124 15.044 24.0996C15.2643 24.1868 15.6021 24.2329 16.0623 24.2432V24.7149H11V24.2432C11.4308 24.2329 11.7491 24.1868 11.9596 24.0996C12.1652 24.0176 12.3023 23.8432 12.361 23.5817C12.4198 23.3202 12.4492 22.9203 12.4443 22.3768V13.5062C12.4492 12.9627 12.4247 12.5627 12.3659 12.3012C12.3072 12.0397 12.1799 11.8654 11.9792 11.7782C11.7833 11.691 11.4749 11.6398 11.0685 11.6244V11.1475H15.8861C17.5115 11.1424 18.7012 11.4398 19.4551 12.05C20.2091 12.655 20.5861 13.6139 20.5763 14.9214C20.5763 16.7621 19.8958 17.962 18.5249 18.5311C18.1675 18.6798 17.7122 18.7926 17.1541 18.8747C16.6009 18.9567 15.984 18.9977 15.3035 19.0029H14.5201L14.525 18.9977ZM14.525 18.4696H15.3573C16.3561 18.4696 17.0953 18.2184 17.5653 17.7261C17.8248 17.439 18.0158 17.0698 18.148 16.6032C18.2801 16.1417 18.3487 15.6136 18.3487 15.0188C18.3438 12.7832 17.4087 11.6654 15.5483 11.6603H14.525V18.4645V18.4696Z" fill="#3A3A3A"/>
<path fill-rule="evenodd" clip-rule="evenodd" d="M28.7221 19.5728H22.8372C22.8421 20.2291 22.8813 20.7829 22.9498 21.2289C23.0184 21.675 23.1261 22.0801 23.273 22.4493C23.7626 23.644 24.5165 24.2388 25.5398 24.2388C26.1175 24.2388 26.6413 24.0593 27.1162 23.7055C27.5862 23.3517 27.9779 22.8441 28.2912 22.1775L28.7074 22.4698C28.2961 23.3261 27.7967 23.9517 27.2043 24.3516C26.6119 24.7515 25.8923 24.9515 25.0404 24.9464C23.6989 24.931 22.47 24.4798 21.6965 23.603C20.923 22.7262 20.5313 21.5212 20.5166 19.9932C20.5313 18.455 20.9132 17.2346 21.6573 16.3424C22.4015 15.4451 23.5912 14.9888 24.8739 14.9683C25.7258 14.9683 26.5483 15.1734 27.1358 15.5784C27.7184 15.9835 28.1492 16.5783 28.4283 17.3577C28.5213 17.6192 28.5899 17.9115 28.6339 18.2447C28.678 18.578 28.7123 19.0241 28.727 19.583M22.8568 19.06H26.5385C26.5238 18.5011 26.4944 18.055 26.4553 17.7115C26.4112 17.3731 26.3476 17.0654 26.2594 16.7988C25.951 15.8502 25.4712 15.3785 24.825 15.3887C24.1053 15.3938 23.5618 15.9271 23.2093 16.9782C23.1212 17.25 23.0478 17.5525 22.989 17.8756C22.9303 18.1986 22.8911 18.5934 22.8568 19.0549" fill="#3A3A3A"/>
<path d="M29.0954 15.2212L32.3609 14.9854C32.3756 15.3238 32.3903 15.6109 32.4001 15.8468C32.4099 16.0775 32.4148 16.2826 32.4148 16.4621V17.0107C33.1247 15.6519 33.9815 14.9648 34.9851 14.9546C35.4208 14.9648 35.7734 15.0982 36.0426 15.3545C36.3119 15.6109 36.4539 15.9391 36.4637 16.339C36.4588 16.6723 36.3413 16.9389 36.1112 17.1389C35.886 17.3389 35.5824 17.4414 35.2152 17.4466C34.7697 17.4619 34.4955 17.2671 34.3976 16.8671C34.334 16.6159 34.2654 16.4467 34.1969 16.3595C34.1283 16.2672 34.0255 16.2262 33.8933 16.2313H33.8591C33.5164 16.2621 33.1932 16.5441 32.8848 17.0876C32.7477 17.3594 32.64 17.6568 32.5715 17.9798C32.5029 18.308 32.4686 18.6823 32.4686 19.1079V22.4715C32.4637 23.0099 32.4882 23.4047 32.5421 23.6611C32.6008 23.9175 32.7281 24.0816 32.924 24.1585C33.1247 24.2354 33.4331 24.2815 33.8542 24.2918V24.7276H29.0269V24.2918C29.4185 24.2918 29.7123 24.2559 29.9032 24.1738C30.0942 24.0918 30.2165 23.9226 30.2704 23.6611C30.3292 23.3996 30.3536 23.0048 30.3487 22.4715V17.4312C30.3634 16.6826 30.2949 16.1954 30.1333 15.9698C29.9767 15.7442 29.629 15.6417 29.0954 15.6673V15.2315V15.2212Z" fill="#3A3A3A"/>
<path d="M40.3416 14.984L40.3612 16.7838C41.0662 15.5737 42.0699 14.9584 43.382 14.9481C44.7185 14.9379 45.541 15.5737 45.8495 16.8607C46.2264 16.1992 46.6573 15.7172 47.142 15.4096C47.6267 15.1019 48.1897 14.9481 48.8359 14.9532C49.8592 14.9584 50.6082 15.3122 51.0929 16.0095C51.2839 16.271 51.4161 16.5992 51.4944 16.9786C51.5727 17.358 51.6119 17.8554 51.6119 18.4656V22.465C51.607 22.9983 51.6315 23.3931 51.6902 23.6546C51.749 23.9161 51.8714 24.0853 52.0623 24.1674C52.2533 24.2494 52.5421 24.2904 52.9387 24.2853V24.7211H48.2338V24.2853C48.6107 24.2853 48.8898 24.2494 49.0709 24.1674C49.2521 24.0853 49.3696 23.9161 49.4283 23.6546C49.4822 23.3931 49.5067 22.9983 49.5018 22.465V18.481C49.5018 17.5273 49.3941 16.835 49.164 16.4146C48.9339 15.989 48.5667 15.7839 48.0575 15.789C47.4455 15.7788 46.9315 16.1121 46.5104 16.7889C46.1481 17.358 45.967 17.9682 45.9719 18.6245V22.4599C45.967 22.9932 45.9914 23.388 46.0453 23.6495C46.0992 23.911 46.2216 24.0802 46.4076 24.1622C46.5936 24.2443 46.8776 24.2853 47.2595 24.2802V24.716H42.6035V24.2802C42.9805 24.2802 43.2596 24.2443 43.4407 24.1622C43.6219 24.0802 43.7442 23.911 43.7981 23.6495C43.852 23.388 43.8764 22.9932 43.8715 22.4599V18.4605C43.8813 16.6607 43.4113 15.7685 42.4664 15.7839C41.8789 15.8044 41.3844 16.0967 40.983 16.6607C40.5864 17.2247 40.3808 17.9272 40.3612 18.7681V22.4599C40.3563 22.9983 40.3808 23.3983 40.4346 23.6546C40.4885 23.9161 40.606 24.0853 40.792 24.1622C40.9732 24.2392 41.2523 24.2802 41.6292 24.2802V24.716H36.9243V24.2802C37.3209 24.2802 37.6097 24.2443 37.8007 24.1622C37.9916 24.0853 38.114 23.911 38.1728 23.6546C38.2315 23.3931 38.256 22.9983 38.2511 22.4599V17.4042C38.2707 16.6658 38.1972 16.1838 38.0357 15.9634C37.8741 15.7429 37.5167 15.6403 36.9635 15.6557V15.2199L40.3514 14.984H40.3416Z" fill="#3A3A3A"/>
<path d="M65.2849 15.8165V21.8926C65.2849 22.2875 65.2996 22.6156 65.3241 22.872C65.3534 23.1335 65.3975 23.3488 65.4562 23.5283C65.5297 23.7334 65.6422 23.8924 65.7989 24.0154C65.9506 24.1385 66.1219 24.2 66.3079 24.2C66.6799 24.1949 67.0813 24.0052 67.5218 23.636L67.7665 24.0923C67.0715 24.7025 66.2736 25.005 65.3877 24.9999C64.4283 24.9845 63.7773 24.6512 63.4249 24C63.3564 23.8565 63.3025 23.6924 63.2634 23.5078C63.2242 23.3232 63.1998 23.072 63.1851 22.7592C63.1704 22.4464 63.1606 22.0208 63.1655 21.4876V15.8114H62.1768V15.2679C62.5537 15.2525 62.8767 15.1705 63.141 15.0167C63.4053 14.8628 63.6354 14.627 63.8312 14.3039C63.9829 14.0578 64.1102 13.7809 64.213 13.4835C64.3109 13.181 64.399 12.8067 64.4773 12.3606L65.3436 12.2683C65.3339 12.5093 65.3241 12.7554 65.3143 13.0015C65.3045 13.2477 65.2996 13.5451 65.2996 13.8937C65.2996 14.2424 65.2947 14.6885 65.2947 15.232H67.3945V15.8165H65.2947H65.2849Z" fill="#3A3A3A"/>
<path fill-rule="evenodd" clip-rule="evenodd" d="M62.1675 24.3334V24.7179C61.6583 24.7538 61.4527 24.7538 60.919 24.7538C60.4931 24.7538 60.0573 24.7487 59.6901 24.6051C59.4649 24.518 59.3376 24.441 59.1712 24.2565C59.0537 24.0616 58.9802 24.0514 58.9411 23.5078C58.4956 24.0155 58.0256 24.3898 57.5409 24.6256C57.0562 24.8666 56.5323 24.9846 55.9693 24.9794C55.137 24.9692 54.4858 24.7282 54.011 24.2565C53.5409 23.7847 53.3011 23.1335 53.2913 22.308C53.2913 20.7492 54.2166 19.775 56.0721 19.3956C56.9093 19.2264 57.8591 19.1136 58.9215 19.052V17.8676C58.9313 16.919 58.8334 16.2627 58.6375 15.8986C58.4368 15.5346 58.0843 15.3602 57.5702 15.3756C57.0268 15.3654 56.64 15.5705 56.405 15.996C56.3218 16.1396 56.2582 16.3088 56.219 16.4985C56.1798 16.6883 56.1504 16.9498 56.126 17.2882C56.1113 17.6112 56.0232 17.8419 55.8567 17.9804C55.6902 18.1188 55.4259 18.1855 55.0685 18.1804C54.2655 18.1752 53.8592 17.8932 53.8543 17.3446C53.8543 17.0215 53.9522 16.7139 54.1382 16.4216C54.3243 16.1294 54.5887 15.873 54.9314 15.6525C55.656 15.1859 56.6058 14.9552 57.7808 14.9603C58.9754 14.9552 59.8321 15.2013 60.3511 15.7038C60.5861 15.9345 60.7574 16.2268 60.8652 16.5857C60.9778 16.9446 61.0316 17.401 61.0267 17.9599L61.0071 19.5443L60.9924 21.1287C60.9778 21.6466 60.9729 21.9747 60.9729 22.1132C60.968 22.7695 60.9876 23.2463 61.0316 23.5489C61.0757 23.8514 61.1295 23.9847 61.3156 24.1488C61.6485 24.3488 61.9324 24.3436 62.1626 24.3436M58.9215 20.8774V19.4776C57.6779 19.5648 56.7967 19.8058 56.2777 20.2006C55.7588 20.5954 55.5042 21.2107 55.5189 22.0414C55.5238 22.6977 55.6511 23.2156 55.9056 23.6001C56.1553 23.9847 56.498 24.1795 56.9289 24.1898C57.2814 24.1898 57.6094 24.0821 57.9081 23.8668C58.2067 23.6565 58.4417 23.3643 58.6131 22.9848C58.7257 22.7541 58.804 22.4721 58.853 22.1388C58.9019 21.8055 58.9264 21.3851 58.9264 20.8723" fill="#3A3A3A"/>
<path fill-rule="evenodd" clip-rule="evenodd" d="M77.1235 24.3326V24.7172C76.6143 24.7531 76.4087 24.7531 75.8751 24.7531C75.4491 24.7531 75.0134 24.748 74.6462 24.6044C74.421 24.5172 74.2937 24.4403 74.1272 24.2557C74.0097 24.0609 73.9363 24.0506 73.8971 23.5071C73.4516 24.0147 72.9816 24.389 72.4969 24.6249C72.0122 24.8659 71.4884 24.9838 70.9253 24.9787C70.0931 24.9684 69.4419 24.7275 68.967 24.2557C68.497 23.784 68.2571 23.1328 68.2473 22.3021C68.2473 20.7434 69.1726 19.7692 71.0282 19.3897C71.8654 19.2205 72.8151 19.1077 73.8775 19.0462V17.8617C73.8873 16.9131 73.7894 16.2568 73.5936 15.8928C73.3929 15.5287 73.0355 15.3544 72.5263 15.3698C71.9829 15.3595 71.5961 15.5646 71.3611 15.9902C71.2779 16.1338 71.2142 16.303 71.175 16.4927C71.1359 16.6824 71.1065 16.9439 71.082 17.2823C71.0673 17.6053 70.9792 17.8361 70.8127 17.9745C70.6463 18.113 70.3819 18.1796 70.0245 18.1745C69.2216 18.1694 68.8152 17.8874 68.8103 17.3387C68.8103 17.0157 68.9083 16.708 69.0943 16.4158C69.2803 16.1235 69.5447 15.8671 69.8874 15.6466C70.612 15.18 71.5618 14.9493 72.7368 14.9544C73.9314 14.9493 74.7882 15.1954 75.3071 15.6979C75.5421 15.9287 75.7135 16.2209 75.8212 16.5798C75.9338 16.9388 75.9877 17.3951 75.9828 17.954L75.9632 19.5384L75.9485 21.1228C75.9338 21.6407 75.9289 21.9689 75.9289 22.1073C75.924 22.7636 75.9436 23.2405 75.9877 23.543C76.0317 23.8455 76.0856 23.9788 76.2716 24.1429C76.6045 24.3429 76.8885 24.3326 77.1186 24.3378M73.8775 20.8716V19.4718C72.634 19.5589 71.7527 19.7999 71.2338 20.1947C70.7148 20.5896 70.4602 21.2049 70.4749 22.0355C70.4798 22.6918 70.6071 23.2097 70.8617 23.5943C71.1114 23.9788 71.4541 24.1737 71.8849 24.1839C72.2374 24.1839 72.5655 24.0763 72.8641 23.8609C73.1628 23.6507 73.3978 23.3584 73.5691 22.979C73.6817 22.7482 73.76 22.4662 73.809 22.1381C73.858 21.8048 73.8824 21.3843 73.8824 20.8716" fill="#3A3A3A"/>
<path d="M95.1939 24.3264C95.096 24.1213 95.0275 23.8803 94.9981 23.2599L94.9883 23.0753L94.8708 23.2137C94.7337 23.3778 94.5966 23.5214 94.4644 23.6393C94.3322 23.7624 94.1756 23.8854 93.9993 24.0136C93.6174 24.3059 93.2454 24.5161 92.8929 24.6392C92.5404 24.7622 92.1389 24.8186 91.6934 24.8135C90.9198 24.8135 90.3225 24.6238 89.8966 24.2444C89.6567 24.0187 89.4706 23.7367 89.3336 23.3983C89.1965 23.0548 89.1279 22.6907 89.123 22.2959C89.1328 20.8448 89.9847 19.9065 91.7227 19.4912C92.183 19.3783 92.6676 19.2861 93.1817 19.2143C93.6958 19.1425 94.2784 19.0861 94.9246 19.0348L94.9932 17.7683C94.9932 17.3376 94.9736 16.9838 94.9344 16.7172C94.8953 16.4454 94.8267 16.2095 94.7337 16.0096C94.4742 15.4814 93.9504 15.2302 93.1866 15.2302C91.9675 15.2251 91.3066 15.8301 91.2381 17.0402C91.2283 17.235 91.2136 17.3684 91.1891 17.4504C91.1646 17.5273 91.1255 17.5837 91.0716 17.6247C90.9492 17.7119 90.7583 17.7581 90.4792 17.7632C89.8819 17.7734 89.6567 17.5837 89.6665 17.2709C89.6665 16.9428 89.7742 16.6249 89.9847 16.3172C90.1952 16.0096 90.4841 15.7429 90.8611 15.5173C91.5367 15.1276 92.4033 14.9277 93.4608 14.9225C94.6211 14.9225 95.3995 15.1994 95.8255 15.7276C95.9968 15.948 96.1241 16.2249 96.2073 16.5531C96.2906 16.8864 96.3297 17.3017 96.3297 17.8145V17.9221L96.32 18.4195L96.2955 19.727L96.2759 21.5216L96.2563 22.3933C96.2563 22.8035 96.2759 23.1163 96.3004 23.465C96.3297 23.8034 96.4424 24.1828 96.7018 24.2854C96.9711 24.393 97.2355 24.4341 97.73 24.4341C98.0972 24.4289 98.3762 24.3828 98.5672 24.3008C98.7826 24.2033 98.9197 23.9982 98.9735 23.706C99.0323 23.424 99.0518 22.9881 99.0469 22.4138V17.3427C99.0567 16.6505 98.9833 16.1685 98.7924 15.9122C98.6063 15.666 98.2685 15.5584 97.7985 15.5635V15.2917L100.384 15.0969V17.2504L100.521 16.9992C100.902 16.2865 101.338 15.784 101.818 15.4763C102.303 15.1738 102.905 15.0251 103.634 15.0302C104.731 15.0148 105.495 15.3994 105.94 16.1685C106.102 16.4249 106.224 16.7377 106.293 17.0966C106.361 17.4607 106.401 17.9221 106.396 18.4913V22.4087C106.391 22.9932 106.41 23.4291 106.464 23.7111C106.518 24.0034 106.65 24.2085 106.871 24.3008C107.052 24.3777 107.468 24.4187 107.83 24.4289C108.168 24.4187 108.427 24.3777 108.604 24.2956C108.814 24.1982 108.941 23.9931 108.995 23.7008C109.049 23.4188 109.069 22.9881 109.064 22.4087V13.21C109.069 12.6818 109.049 12.2921 109 12.0358C108.946 11.7743 108.819 11.5897 108.604 11.5128C108.418 11.4461 108.143 11.4102 107.781 11.4102V11.1436L110.469 11C110.435 11.6256 110.41 12.2665 110.391 12.9177C110.371 13.5996 110.361 14.1944 110.361 14.7072V20.8961L113.323 17.4966C113.744 17.0094 113.97 16.6044 113.974 16.2762C113.994 15.8199 113.558 15.6148 112.839 15.5789V15.3122H116.687V15.584C116.457 15.6148 116.256 15.6558 116.085 15.7173C115.899 15.784 115.708 15.8814 115.512 16.0044C115.316 16.1275 115.149 16.2454 115.012 16.348C114.875 16.4557 114.714 16.6095 114.528 16.8043C114.342 16.9992 114.072 17.3017 113.72 17.7017L112.741 18.8041L115.296 23.0189C115.59 23.5162 115.859 23.87 116.104 24.07C116.339 24.2597 116.638 24.3828 117 24.4443V24.7212H114.66C114.596 24.5828 114.508 24.4084 114.395 24.1879L114.023 23.4752L113.739 22.942L111.845 19.7116L110.356 21.455V22.4343C110.347 23.0137 110.366 23.4445 110.42 23.7265C110.474 24.0187 110.606 24.2238 110.821 24.3213C111.008 24.4033 111.287 24.4495 111.654 24.4546V24.7212H103.747V24.4546C104.281 24.4392 104.648 24.3469 104.8 24.1418C104.858 24.0598 104.902 23.9726 104.937 23.87C104.971 23.7675 104.986 23.6393 104.995 23.4752C105.005 23.347 105.015 23.1676 105.03 22.9266C105.044 22.6856 105.049 22.5215 105.049 22.4292V18.6246C105.049 17.6863 104.956 16.9889 104.751 16.548C104.442 15.8557 103.884 15.5071 103.096 15.502C102.215 15.502 101.514 15.9378 100.996 16.8043C100.8 17.1325 100.648 17.5068 100.54 17.9221C100.428 18.3375 100.374 18.7477 100.374 19.1527V22.4292C100.369 23.0138 100.388 23.4496 100.442 23.7316C100.496 24.0239 100.628 24.229 100.849 24.3213C101.04 24.4033 101.324 24.4443 101.691 24.4546V24.7212H97.8034C97.4607 24.7315 96.7997 24.752 96.4766 24.7468C96.1339 24.7417 95.9724 24.7058 95.659 24.6802C95.38 24.5981 95.2673 24.5212 95.1743 24.3315M90.5869 22.2446C90.5918 22.8599 90.7387 23.3624 91.0226 23.7419C91.3066 24.1213 91.6983 24.3161 92.1732 24.3264C92.6579 24.3213 93.1132 24.1879 93.544 23.9316C93.9699 23.6752 94.3078 23.3317 94.5526 22.9112C94.6994 22.6394 94.8071 22.2908 94.8757 21.8703C94.9442 21.4499 94.9785 20.9269 94.9736 20.3013V19.3322C94.107 19.4091 93.4902 19.4963 93.0397 19.5937C92.5844 19.6963 92.1879 19.8398 91.8354 20.0244C91.0079 20.4551 90.5918 21.2037 90.5869 22.2498" fill="#3A3A3A"/>
</svg>
