<svg width="128" height="36" viewBox="0 0 128 36" fill="none" xmlns="http://www.w3.org/2000/svg">
<path d="M35.7054 9.64015C36.4579 9.6948 37.1848 9.85454 37.8884 10.1306C38.9351 10.5411 39.7902 11.1906 40.4299 12.1147C40.6101 12.3746 40.6406 12.6629 40.5342 12.9561C40.3593 13.4371 39.6258 13.6532 39.2097 13.1681C39.0391 12.9691 38.8635 12.7736 38.6809 12.5859C37.945 11.8285 37.0359 11.4053 36.0039 11.2242C35.9414 11.2134 35.8757 11.2193 35.8115 11.2172C35.7634 11.2032 35.7156 11.1892 35.6675 11.1755C35.3522 11.1671 35.0334 11.1237 34.7226 11.157C33.9083 11.2438 33.0955 11.3577 32.428 11.9021C31.8725 12.355 31.5856 12.9372 31.5217 13.6522C31.4353 14.6225 31.8967 15.2972 32.6457 15.8244C33.3276 16.3044 34.1025 16.5962 34.8813 16.8757C35.7771 17.1973 36.6868 17.4842 37.5685 17.8394C38.5078 18.2177 39.3814 18.7176 40.0412 19.517C40.5188 20.0957 40.7733 20.7662 40.865 21.5036C40.8783 21.5509 40.892 21.5982 40.9054 21.6455C40.9057 22.0182 40.9064 22.3913 40.9068 22.764C40.8927 22.8228 40.8787 22.882 40.865 22.9409C40.8025 23.2499 40.7638 23.5658 40.6729 23.8661C40.3794 24.8353 39.7835 25.5825 38.9092 26.0908C38.5622 26.2926 38.1806 26.4376 37.8073 26.5904C37.2371 26.8233 36.6352 26.9344 36.0232 26.9628C35.4066 26.9915 34.7865 27.0174 34.171 26.9859C33.6137 26.9575 33.0611 26.8482 32.5379 26.6345C32.1471 26.4751 31.738 26.3466 31.3732 26.1406C30.548 25.6747 29.831 25.075 29.3254 24.2587C29.2056 24.0654 29.0926 23.8594 29.0248 23.644C28.8991 23.2457 29.2706 22.7482 29.7091 22.7283C30.0845 22.7111 30.3675 22.8372 30.5694 23.1661C31.0371 23.9288 31.6895 24.5054 32.4736 24.9229C32.895 25.1475 33.3511 25.3041 33.8335 25.3598C34.2005 25.4021 34.5688 25.4876 34.9343 25.4775C35.6187 25.4585 36.3059 25.4379 36.9678 25.2025C37.3382 25.0704 37.6995 24.9299 38.0236 24.7092C38.4997 24.3852 38.8354 23.9526 39.0191 23.4026C39.2824 22.6134 39.307 21.8248 38.9882 21.0503C38.7754 20.5332 38.3867 20.1423 37.9091 19.8659C37.4513 19.6007 36.9706 19.3692 36.4832 19.1622C36.0808 18.9912 35.6521 18.8823 35.2374 18.739C34.4716 18.4738 33.698 18.2268 32.9452 17.9287C32.1699 17.6219 31.4501 17.2074 30.8612 16.6018C30.0431 15.7603 29.7576 14.7395 29.8222 13.5891C29.8531 13.0381 29.9602 12.512 30.2127 12.0247C30.6502 11.1804 31.3173 10.5713 32.1811 10.1695C32.8002 9.88151 33.4561 9.7512 34.1281 9.67798C34.2549 9.66432 34.382 9.65241 34.5088 9.6398C34.6148 9.63034 34.7209 9.62123 34.8265 9.61177C35.0025 9.60967 35.178 9.60757 35.3539 9.60547C35.4712 9.61703 35.5882 9.62824 35.7054 9.6398V9.64015Z" fill="#436C86"/>
<path d="M58.3861 20.8614C57.9342 21.2232 57.5023 21.5795 57.0577 21.9193C56.9201 22.0244 56.8787 22.1351 56.8794 22.3011C56.8839 23.5314 56.8804 24.7613 56.8762 25.9916C56.8744 26.5314 56.5265 26.8961 55.9615 26.8624C55.6581 26.8446 55.3112 26.5177 55.2856 26.2158C55.2768 26.1114 55.2701 26.0063 55.2701 25.9016C55.2694 20.5787 55.2694 15.2554 55.2698 9.93254C55.2698 9.69468 55.2715 9.46418 55.4467 9.26346C55.6925 8.98216 56.0107 8.9706 56.327 9.027C56.6076 9.07674 56.7702 9.29253 56.832 9.56927C56.8579 9.68662 56.8755 9.80888 56.8755 9.92904C56.8776 13.2405 56.8772 16.5523 56.8772 19.8637C56.8772 19.9436 56.8772 20.0231 56.8772 20.1506C56.964 20.0861 57.0135 20.0525 57.0598 20.0147C58.9528 18.473 60.8489 16.9348 62.7348 15.3843C63.0224 15.1479 63.5913 15.1643 63.8335 15.3826C64.1517 15.6688 64.178 16.264 63.8504 16.554C63.4617 16.8984 63.0466 17.2126 62.6404 17.537C61.6909 18.295 60.7397 19.051 59.7895 19.808C59.7629 19.8294 59.7393 19.8549 59.7025 19.8896C59.9226 20.1734 60.1393 20.454 60.3573 20.7335C61.5954 22.3218 62.8314 23.9115 64.0737 25.4963C64.3121 25.8003 64.3381 26.1215 64.1917 26.4568C64.0533 26.7735 63.5667 26.9847 63.2268 26.8109C63.0463 26.7185 62.8725 26.5787 62.7468 26.4197C61.3545 24.6559 59.9725 22.884 58.5876 21.1143C58.5269 21.0365 58.4644 20.9598 58.3857 20.8617L58.3861 20.8614Z" fill="#436C86"/>
<path d="M80.2348 20.0896C80.6084 19.7912 80.9845 19.4959 81.3549 19.1939C82.9129 17.9255 84.4712 16.6577 86.0236 15.3822C86.3006 15.1545 86.8421 15.1402 87.1339 15.3998C87.4243 15.6579 87.4927 16.3056 87.0682 16.6321C86.7069 16.9096 86.3544 17.1982 85.9976 17.4816C85.0467 18.2379 84.0962 18.9942 83.1454 19.7506C83.0958 19.7901 83.0481 19.8318 82.9849 19.8847C83.1766 20.1324 83.3606 20.3716 83.5463 20.6095C84.828 22.2521 86.1103 23.8943 87.392 25.5369C87.6054 25.8105 87.6125 26.2844 87.4085 26.5594C87.2111 26.8257 86.8101 26.9584 86.5015 26.8148C86.3347 26.7374 86.1774 26.6018 86.0626 26.4561C84.6391 24.6503 83.224 22.8378 81.8065 21.0271C81.7675 20.9773 81.7261 20.93 81.6731 20.8666C81.5091 20.9959 81.3539 21.1167 81.2004 21.2393C80.9037 21.4762 80.6109 21.7179 80.31 21.9491C80.2078 22.0275 80.166 22.1099 80.1667 22.2412C80.172 23.4655 80.1741 24.6899 80.1653 25.9138C80.1639 26.0939 80.1305 26.2872 80.0585 26.4508C79.9237 26.7574 79.5231 26.9329 79.1709 26.8519C78.8815 26.7854 78.5989 26.5286 78.5645 26.1436C78.5603 26.0974 78.5627 26.0504 78.5627 26.0038C78.5627 20.6232 78.5627 15.2421 78.5627 9.86143C78.5627 9.83236 78.5624 9.80328 78.5627 9.77386C78.575 9.2449 78.9809 8.89109 79.5919 9.03331C79.962 9.11914 80.1031 9.38116 80.1572 9.71781C80.1709 9.80328 80.1695 9.89191 80.1695 9.97914C80.1702 13.2671 80.1699 16.5551 80.1702 19.843C80.1702 19.9187 80.1748 19.9944 80.1772 20.0697C80.1962 20.0763 80.2152 20.0826 80.2345 20.0893L80.2348 20.0896Z" fill="#436C86"/>
<path d="M46.5865 19.959C46.7438 19.9492 46.9008 19.9317 47.0581 19.9313C48.2038 19.9289 49.3492 19.9299 50.4949 19.9299C50.5641 19.9299 50.6336 19.9299 50.7228 19.9299C50.7228 19.5821 50.7601 19.2423 50.7123 18.9147C50.6638 18.5837 50.5532 18.2565 50.4303 17.9433C50.2291 17.4309 49.8408 17.0774 49.339 16.8704C49.0441 16.7485 48.7224 16.691 48.4127 16.6048C48.365 16.5905 48.3172 16.5761 48.2695 16.5617C47.9331 16.5624 47.5967 16.5631 47.26 16.5638C47.2098 16.5775 47.1595 16.5915 47.1097 16.6052C46.3709 16.6581 45.7568 16.9769 45.2315 17.482C45.1012 17.6074 44.9804 17.7423 44.8537 17.8712C44.7041 18.0232 44.5296 18.1217 44.3119 18.1542C43.9347 18.211 43.4456 17.7854 43.5355 17.3398C43.5632 17.2025 43.6289 17.0651 43.7062 16.9464C44.131 16.2952 44.7111 15.8208 45.4211 15.5073C45.946 15.2758 46.4977 15.1416 47.07 15.0947C47.1188 15.0835 47.168 15.0722 47.2168 15.061C47.615 15.0666 48.0131 15.0722 48.411 15.0778C48.4468 15.0849 48.4823 15.0922 48.5181 15.0992C49.062 15.15 49.5855 15.2716 50.0876 15.4975C50.6881 15.7676 51.1814 16.1585 51.5571 16.6956C51.8342 17.0914 52.0276 17.5314 52.1224 18.0001C52.2102 18.4338 52.2812 18.8797 52.2843 19.3207C52.3001 21.5473 52.2938 23.7738 52.2892 26.0007C52.2885 26.35 52.1646 26.6236 51.8156 26.7963C51.3893 27.0068 50.8468 26.6912 50.7706 26.2967C50.7646 26.2712 50.759 26.2456 50.753 26.2197C50.7471 25.9184 50.7411 25.6175 50.7351 25.3162C50.7362 25.298 50.7369 25.2794 50.7379 25.2612C50.7211 25.2773 50.7039 25.2931 50.687 25.3092C50.2741 25.9839 49.6582 26.3938 48.9352 26.6814C48.0437 27.0362 47.1241 27.0254 46.196 26.9287C45.4007 26.8457 44.6711 26.5787 44.0475 26.0739C43.374 25.5289 42.9744 24.8251 42.8961 23.9539C42.895 23.9304 42.8936 23.9073 42.8926 23.8838C42.8936 23.5805 42.8943 23.2774 42.8954 22.9741C42.8961 22.9506 42.8971 22.9275 42.8978 22.904C42.967 22.167 43.3013 21.5567 43.8245 21.0502C44.3982 20.4946 45.1005 20.1895 45.8867 20.0697C46.0693 20.042 46.2529 20.0193 46.4359 19.9944C46.4861 19.9828 46.5359 19.9709 46.5861 19.9594L46.5865 19.959ZM50.7246 21.3368C50.6849 21.3304 50.6624 21.3234 50.64 21.3238C49.3201 21.3378 47.9998 21.3375 46.6806 21.377C46.3442 21.3872 45.9987 21.4891 45.6809 21.6103C45.1619 21.8086 44.7866 22.1824 44.5952 22.7114C44.4628 23.0767 44.447 23.4565 44.5148 23.8397C44.6142 24.4026 44.927 24.8146 45.4042 25.1183C45.7125 25.3145 46.051 25.4189 46.4067 25.477C46.9008 25.5579 47.3987 25.5877 47.8948 25.5169C48.3896 25.4465 48.8523 25.2721 49.2853 25.023C49.766 24.7463 50.1389 24.3599 50.3875 23.8677C50.7903 23.0704 50.7551 22.2097 50.7249 21.3371L50.7246 21.3368Z" fill="#436C86"/>
<path d="M94.9547 26.9678C94.5685 26.9685 94.1819 26.9692 93.7957 26.9702C93.7725 26.9692 93.7493 26.9685 93.7261 26.9674C92.8016 26.9271 91.9276 26.7173 91.1741 26.155C90.7664 25.8506 90.4473 25.467 90.2113 25.0074C89.9381 24.4743 89.8121 23.9099 89.7569 23.3228C89.7538 23.2885 89.7601 23.2535 89.7618 23.2184C89.7597 23.1834 89.7576 23.1484 89.7555 23.1133C89.745 22.9217 89.7257 22.7298 89.7257 22.5381C89.7236 20.381 89.7232 18.2238 89.7271 16.0666C89.7271 15.9352 89.745 15.7958 89.791 15.6739C89.9149 15.3471 90.1744 15.1908 90.5687 15.2105C90.9237 15.228 91.1485 15.3779 91.2612 15.6953C91.3047 15.8175 91.3286 15.9538 91.3289 16.0838C91.3328 18.235 91.3332 20.3866 91.3307 22.5378C91.3304 22.962 91.349 23.3838 91.4849 23.7884C91.7773 24.6599 92.3936 25.1935 93.2851 25.3686C94.1233 25.5336 94.9681 25.5403 95.7943 25.2569C96.3649 25.061 96.8231 24.7195 97.0633 24.1671C97.2076 23.835 97.3228 23.4615 97.3305 23.1042C97.3716 21.1832 97.3751 19.261 97.3909 17.3396C97.3948 16.8674 97.393 16.3952 97.3997 15.9233C97.4063 15.4536 97.8821 15.1271 98.3811 15.2161C98.8137 15.2935 98.9931 15.6259 98.9942 15.9713C99.0005 18.2858 99.0072 20.6006 98.9836 22.9147C98.9759 23.6661 98.814 24.4046 98.4727 25.0845C98.1304 25.7662 97.5823 26.2367 96.8828 26.5397C96.3003 26.7919 95.6949 26.9394 95.0601 26.9653C95.025 26.966 94.9902 26.9667 94.9551 26.9671L94.9547 26.9678Z" fill="#436B85"/>
<path d="M75.5477 22.9753C75.508 23.7544 75.3647 24.51 74.9862 25.2015C74.6126 25.8839 74.0213 26.32 73.3082 26.6066C72.7744 26.821 72.2203 26.9383 71.6462 26.9649C71.5995 26.9667 71.5532 26.9684 71.5065 26.9702C71.1318 26.9702 70.7568 26.9702 70.3822 26.9702C70.359 26.9691 70.3358 26.9681 70.3126 26.967C69.7118 26.9495 69.1367 26.8234 68.5745 26.6059C67.611 26.2328 66.973 25.5462 66.6106 24.6028C66.4906 24.29 66.4361 23.9481 66.3817 23.6146C66.236 22.7196 66.3132 21.8154 66.3066 20.9155C66.2946 19.301 66.3027 17.686 66.3038 16.0711C66.3038 15.8431 66.3347 15.6333 66.5007 15.4444C66.7869 15.1187 67.4825 15.0945 67.7325 15.5033C67.8382 15.6763 67.9021 15.9037 67.9032 16.1065C67.9151 18.2633 67.9109 20.4205 67.9102 22.5774C67.9102 23.0653 67.9414 23.5502 68.1398 24.0035C68.3445 24.4718 68.6665 24.8389 69.1223 25.0915C69.6286 25.3721 70.1746 25.4555 70.7414 25.4639C71.3 25.4719 71.8534 25.4548 72.3864 25.2523C72.8977 25.0582 73.331 24.7696 73.5887 24.277C73.7878 23.8966 73.9198 23.485 73.924 23.0541C73.9458 20.7943 73.956 18.5341 73.97 16.2743C73.9707 16.1692 73.9648 16.0641 73.9721 15.9597C74.021 15.2742 74.7172 15.0276 75.238 15.3271C75.4968 15.476 75.5751 15.7485 75.5758 16.0305C75.5793 18.1057 75.5782 20.1813 75.5772 22.2565C75.5772 22.4369 75.5694 22.6169 75.5652 22.7974C75.5593 22.8569 75.5536 22.9165 75.5477 22.976V22.9753Z" fill="#436B85"/>
</svg>
