<svg width="128" height="36" viewBox="0 0 128 36" fill="none" xmlns="http://www.w3.org/2000/svg">
<path fill-rule="evenodd" clip-rule="evenodd" d="M24.7645 18.1764C24.2576 17.7163 23.697 17.3519 23.0649 17.0114C22.4327 16.6948 21.8065 16.402 21.1505 16.187C20.8344 16.0675 20.5183 15.942 20.1784 15.8225C19.8444 15.709 19.5284 15.5537 19.2361 15.3625C18.9439 15.1952 18.7292 14.9742 18.5324 14.7293C18.3595 14.4783 18.2641 14.1856 18.2641 13.8809C18.2879 13.3492 18.5324 12.937 18.9916 12.6682C19.4747 12.3993 20.0114 12.2798 20.6376 12.3276C21.4368 12.3754 22.1405 12.5248 22.7011 12.7638C23.2557 13.0326 23.7924 13.3194 24.2755 13.6898L26.0229 11.2105C25.2953 10.625 24.4962 10.1411 23.6732 9.72888C22.8502 9.31666 21.8542 9.11952 20.739 9.09562H20.6913C19.9637 9.07172 19.26 9.16731 18.5801 9.38835C17.9003 9.6094 17.3218 9.89616 16.7851 10.2845C16.2543 10.6728 15.8428 11.1806 15.5267 11.79C15.2106 12.3993 15.0437 13.1282 15.0198 13.9287C14.9959 15.1654 15.3359 16.187 16.0396 16.9875C16.7373 17.788 17.62 18.4093 18.61 18.7857C19.0692 18.9829 19.5522 19.174 20.089 19.3234C20.5959 19.4907 21.0849 19.6878 21.5203 19.9029C21.9556 20.1239 22.3194 20.3629 22.6116 20.6795C22.9038 20.9962 23.0708 21.3606 23.047 21.8206C23.0231 22.43 22.7547 22.9139 22.2478 23.2305C21.7409 23.5471 21.1088 23.7144 20.3812 23.6905C19.5164 23.6666 18.6696 23.4695 17.8824 23.105C17.0832 22.7167 16.3795 22.2567 15.7951 21.719L14 24.2222C14.1729 24.3895 14.4592 24.6583 14.823 24.975C15.2464 25.3155 15.6997 25.6142 16.1827 25.8711C16.7135 26.1638 17.3218 26.4087 17.9778 26.6238C18.6577 26.8449 19.3852 26.9405 20.1844 26.9643C21.0312 26.9882 21.8304 26.8927 22.5579 26.6716C23.2855 26.4506 23.9415 26.1339 24.4962 25.6978C25.0448 25.2677 25.4921 24.7181 25.8022 24.0967C26.1183 23.4635 26.2853 22.7346 26.3091 21.9341C26.333 21.1097 26.1898 20.3808 25.8738 19.7715C25.6531 19.1382 25.2655 18.6065 24.7586 18.1704L24.7645 18.1764Z" fill="#EA5F00"/>
<path fill-rule="evenodd" clip-rule="evenodd" d="M70.3159 19.0541C69.8567 18.3253 69.32 17.8175 68.7177 17.5248C68.8608 17.3814 69.0337 17.1842 69.1769 17.017C69.3438 16.8198 69.4929 16.6047 69.6122 16.312C69.7553 16.0193 69.8567 15.7026 69.9521 15.3143C70.0237 14.926 70.0714 14.466 70.0714 13.9044C70.0714 13.3667 69.97 12.8291 69.7792 12.3272C69.5884 11.8194 69.314 11.3475 68.9562 10.9412C68.5924 10.529 68.1809 10.1646 67.674 9.87186C67.1432 9.56718 66.5588 9.376 65.9505 9.31626C65.539 9.26847 65.0798 9.22067 64.5908 9.22067C64.0838 9.19678 63.571 9.19678 62.9925 9.19678L58.2871 9.22067V26.9998H64.7816C65.3899 26.9998 65.8491 26.9998 66.2367 26.9759C66.8928 26.9042 67.4951 26.7548 68.0795 26.5159C68.6342 26.2709 69.1709 25.9364 69.5824 25.4943C70.0177 25.0582 70.3577 24.5205 70.626 23.941C70.8825 23.2898 71.0137 22.6028 71.0137 21.9038C71.0137 20.715 70.7692 19.7651 70.31 19.0601L70.3159 19.0541ZM61.2272 12.2555H62.7778C63.2847 12.2555 63.7499 12.2555 64.1375 12.2794C64.5252 12.3033 64.8889 12.3272 65.1573 12.3511C65.7656 12.4228 66.2487 12.62 66.6125 12.9366C67.0001 13.2293 67.1909 13.6655 67.1671 14.1972C67.1909 14.8782 66.9703 15.386 66.6125 15.6787C66.2248 15.9715 65.7418 16.1627 65.1335 16.2343C64.8412 16.2821 64.5013 16.306 64.1137 16.306H61.2272V12.2496V12.2555ZM67.3579 23.0867C66.9226 23.4989 66.2189 23.7439 65.2468 23.7917C64.9545 23.8156 64.5908 23.8395 64.1077 23.8156H61.2213V19.2274H62.7003C63.1595 19.2274 63.5948 19.2274 64.0123 19.2035C64.4238 19.1796 64.7876 19.1796 65.0798 19.2035C66.0221 19.2513 66.7258 19.4723 67.2387 19.8607C67.7456 20.249 68.0139 20.7807 68.0139 21.4856C68.0378 22.1428 67.8171 22.6745 67.3579 23.0867Z" fill="#EA5F00"/>
<path fill-rule="evenodd" clip-rule="evenodd" d="M41.3202 20.6077C41.3679 19.3949 41.2248 18.3494 40.8848 17.4234C40.5449 16.5034 40.0618 15.6969 39.4297 15.0696C38.8214 14.4125 38.0938 13.9286 37.2708 13.588C36.4478 13.2475 35.5652 13.0743 34.6766 13.0802C33.5614 13.0802 32.5654 13.2774 31.7186 13.6119C30.8479 13.9764 30.1203 14.4842 29.5359 15.1174C28.9514 15.7507 28.5161 16.4795 28.2 17.304C27.9078 18.1284 27.7646 19.0305 27.7646 19.9744C27.7646 21.0199 27.9615 21.9638 28.3193 22.842C28.6711 23.6664 29.184 24.4192 29.8221 25.0525C30.4543 25.6618 31.1938 26.1517 32.0049 26.4863C32.8278 26.8029 33.7045 26.9702 34.6229 26.9702C35.4698 26.9702 36.2212 26.8985 36.8534 26.7491C37.4318 26.6416 37.9984 26.4803 38.5471 26.2652C39.0122 26.0561 39.4595 25.7992 39.8829 25.5125C40.2706 25.2436 40.6344 24.9748 40.9981 24.7119L39.4237 22.5015C39.2031 22.6747 38.9884 22.842 38.72 23.0332C38.4278 23.2303 38.064 23.3976 37.6764 23.5649C37.2887 23.7083 36.8534 23.8337 36.3405 23.9293C35.8574 24.001 35.2968 24.0488 34.6945 24.0249C34.3546 23.995 34.0146 23.9472 33.6747 23.8815C33.3169 23.7859 32.971 23.6366 32.6549 23.4454C32.3388 23.2184 32.0466 22.9615 31.7842 22.6688C31.5158 22.3521 31.325 21.9638 31.1998 21.5038L31.1759 21.3843H41.2844L41.3083 20.6077H41.3202ZM31.0924 18.7139L31.1163 18.6183C31.164 18.23 31.2832 18.0328 31.4085 17.7699L31.48 17.6266C31.6888 17.2801 31.9571 16.9754 32.2792 16.7304C32.5953 16.4915 32.959 16.3182 33.3467 16.2226C33.7582 16.1032 34.1697 16.0255 34.5812 16.0255C35.5533 16.0494 36.3524 16.3182 36.9309 16.8499C37.2231 17.0949 37.4617 17.3338 37.6585 17.6027C37.8553 17.8715 37.9745 18.1881 38.0222 18.6004L38.0461 18.7198H31.0864L31.0924 18.7139Z" fill="#EA5F00"/>
<path fill-rule="evenodd" clip-rule="evenodd" d="M52.8359 13.469V14.4428L52.6391 14.2755C52.2276 13.9111 51.6908 13.6184 51.0885 13.4272C50.5041 13.2062 49.8063 13.0867 49.0012 13.0867C48.1066 13.0867 47.2538 13.2539 46.4785 13.5945C45.7092 13.9111 45.0234 14.389 44.4688 15.0044C43.8843 15.6137 43.449 16.3665 43.109 17.2387C42.793 18.087 42.626 19.0608 42.626 20.1302C42.626 21.0801 42.7989 21.9762 43.109 22.8007C43.449 23.6251 43.8843 24.33 44.4688 24.9633C45.0472 25.5727 45.7271 26.0745 46.4785 26.4449C47.2538 26.7854 48.0768 26.9527 49.0012 26.9527C49.8003 26.9527 50.5041 26.8571 51.0885 26.6361C51.6968 26.421 52.2276 26.1044 52.6391 25.7161L52.8359 25.5189V26.9288H55.9609V13.469H52.8359ZM52.5436 21.7253C52.3528 22.1853 52.0844 22.5975 51.7684 22.9142C51.4523 23.2308 51.0885 23.4459 50.677 23.6191C50.2655 23.7625 49.8302 23.8402 49.3948 23.8402C48.3989 23.8402 47.5759 23.4996 46.896 22.8425C46.2161 22.1375 45.9001 21.2175 45.9001 20.0764C45.9001 18.9354 46.24 18.0393 46.896 17.3104C47.5759 16.5816 48.3989 16.2171 49.3948 16.2171C49.854 16.2171 50.2894 16.3127 50.677 16.486C51.1124 16.6532 51.4761 16.8982 51.7684 17.2387C52.0844 17.5553 52.3528 17.9676 52.5436 18.4754C52.7404 18.9593 52.8359 19.497 52.8359 20.1242C52.8359 20.7097 52.7404 21.2414 52.5436 21.7253Z" fill="#EA5F00"/>
<path fill-rule="evenodd" clip-rule="evenodd" d="M82.1473 13.5401V14.4362L81.9505 14.2689C81.539 13.9045 81.0023 13.6118 80.3999 13.4206C79.8155 13.1996 79.1177 13.0801 78.3186 13.0801C77.424 13.0801 76.5712 13.2474 75.7959 13.5879C75.0266 13.9045 74.3408 14.3824 73.7861 14.9978C73.2017 15.6072 72.7664 16.3599 72.4264 17.2321C72.1103 18.0805 71.9434 19.0542 71.9434 20.1236C71.9434 21.0735 72.1103 21.9696 72.4264 22.7941C72.7664 23.6185 73.2017 24.3235 73.7861 24.9567C74.3646 25.5661 75.0445 26.0679 75.7959 26.4383C76.5712 26.7788 77.3942 26.9461 78.3186 26.9461C79.1177 26.9461 79.8214 26.8505 80.3999 26.6295C81.0082 26.4144 81.539 26.0978 81.9505 25.7095L82.1473 25.5123V26.9222H85.2723V13.5401H82.1473ZM81.8551 21.7247C81.6642 22.1847 81.3959 22.5969 81.0798 22.9136C80.7637 23.2302 80.3999 23.4453 79.9884 23.6185C79.5769 23.7619 79.1416 23.8395 78.7062 23.8395C77.7103 23.8395 76.8873 23.499 76.2074 22.8419C75.5276 22.1369 75.2115 21.2169 75.2115 20.0758C75.2115 18.9348 75.5514 18.0386 76.2074 17.3098C76.8873 16.5809 77.7103 16.2165 78.7062 16.2165C79.1654 16.2165 79.5769 16.3121 79.9884 16.4854C80.4238 16.6526 80.7876 16.8976 81.0798 17.2381C81.3959 17.5547 81.6642 17.9669 81.8551 18.4747C82.0519 18.9587 82.1473 19.4963 82.1473 20.1236C82.1473 20.7091 82.0519 21.2408 81.8551 21.7247Z" fill="#EA5F00"/>
<path fill-rule="evenodd" clip-rule="evenodd" d="M108.108 19.3473L113.809 13.1043H109.688L104.983 18.2301V9H101.834V26.9703H104.983V22.8899L106.026 21.725L110.1 26.9703H114L108.108 19.3473Z" fill="#EA5F00"/>
<path fill-rule="evenodd" clip-rule="evenodd" d="M99.0192 16.2112C98.727 15.3868 98.1724 14.6579 97.3732 14.0486C96.5741 13.4392 95.5543 13.1226 94.3436 13.1226C93.7115 13.1226 93.0614 13.2181 92.4054 13.4153C91.8329 13.5885 91.2962 13.8693 90.831 14.2397V13.5348H87.6523V26.9647H90.831V19.7778C90.8549 19.2939 90.9026 18.8339 90.9503 18.3918C91.0218 17.9318 91.1411 17.5434 91.3379 17.2029C91.5347 16.8624 91.821 16.5935 92.1848 16.3785C92.5486 16.1634 93.0078 16.038 93.5684 16.0141C94.2721 15.9902 94.8267 16.1813 95.268 16.5517C95.7034 16.9401 95.9956 17.424 96.1387 18.0572C96.2103 18.35 96.258 18.7383 96.3117 19.2222C96.3355 19.6822 96.3594 20.3632 96.3594 21.2653V26.9707H99.4844V20.4887C99.4844 19.73 99.4665 18.9653 99.4128 18.2066C99.3651 17.5315 99.2399 16.8624 99.0252 16.2172L99.0192 16.2112Z" fill="#EA5F00"/>
</svg>
