<svg width="128" height="36" viewBox="0 0 128 36" fill="none" xmlns="http://www.w3.org/2000/svg">
<path fill-rule="evenodd" clip-rule="evenodd" d="M62.4215 20.2172C62.4215 22.083 61.2503 23.3415 59.6363 23.3415C58.0223 23.3415 56.8041 22.141 56.8041 20.2172C56.8041 18.2933 57.9828 17.0928 59.6363 17.0928C61.2898 17.0928 62.4215 18.3513 62.4215 20.2172ZM59.6363 14.4578C56.1724 14.4522 53.7463 16.9169 53.751 20.2172C53.7557 23.5175 56.1329 26.0009 59.6363 25.9999C63.1387 25.999 65.4662 23.48 65.4662 20.2172C65.4662 16.9543 63.0992 14.4634 59.6363 14.4578Z" fill="#FF0025"/>
<path fill-rule="evenodd" clip-rule="evenodd" d="M32.0491 14.4578C30.3806 14.455 29.1276 14.9696 28.0513 15.9998C26.975 17.0301 26.3668 18.4412 26.3696 20.3884C26.3725 22.3356 27.1968 23.8094 28.2684 24.6703C29.3391 25.5311 30.6194 25.9999 32.4204 25.9999C34.2224 25.9999 35.6154 25.3487 36.327 24.907V22.2683C35.8326 22.6856 34.3239 23.5025 32.8105 23.5025C31.2971 23.5025 29.7358 22.9991 29.3513 21.1351H37.0085C37.0452 20.8422 37.1129 20.4015 37.111 19.9383C37.1063 18.4327 36.7782 17.4334 36.0037 16.3629C35.2282 15.2924 33.7166 14.4625 32.0482 14.4587L32.0491 14.4578ZM31.9043 16.7503C32.6093 16.7503 33.0991 16.9721 33.476 17.3669C33.8529 17.7618 34.1105 18.3495 34.1519 18.982H29.4068C29.5365 18.4281 29.6859 18.0304 30.1042 17.5457C30.5225 17.061 31.1993 16.7512 31.9043 16.7512V16.7503Z" fill="#FF0025"/>
<path fill-rule="evenodd" clip-rule="evenodd" d="M38.6445 10.002V23.9059C38.6445 25.3441 39.6738 25.9991 40.6815 25.9991C41.6892 25.9991 42.3293 25.665 42.3293 25.665C42.3293 25.665 41.7146 25.17 41.7117 22.9673C41.7089 20.832 41.7117 12.8026 41.7117 11.8528C41.7127 10.9031 41.1036 10.002 39.9812 10.002H38.6455H38.6445Z" fill="#FF0025"/>
<path fill-rule="evenodd" clip-rule="evenodd" d="M17 12.0951V13.6653H21.4556V23.9058C21.4556 25.344 22.4849 25.999 23.4926 25.999C24.5002 25.999 25.1404 25.665 25.1404 25.665C25.1404 25.665 24.5256 25.17 24.5228 22.9673C24.52 20.832 24.5228 14.0976 24.5228 13.1478C24.5228 12.1981 23.4108 10.4875 21.5806 10.4875H18.7522C17.8253 10.4875 17 11.2389 17 12.0942V12.0951ZM23.5433 10.4885C23.485 10.4885 23.438 10.5353 23.438 10.5933C23.438 10.6513 23.4963 10.6943 23.5433 10.729C23.737 10.8731 24.3423 11.2998 24.6309 11.8836C24.9195 12.4675 24.927 12.9972 25.114 13.3041C25.302 13.6101 25.6075 13.6653 25.9318 13.6653H28.2602C28.7744 13.6653 28.9774 13.3209 28.9774 12.9129V10.4885H23.5433Z" fill="#FF0025"/>
<path fill-rule="evenodd" clip-rule="evenodd" d="M43.7231 10.0019V25.8165H46.7904C46.7904 24.1753 46.7904 22.5312 46.7904 20.816C47.453 21.5786 49.2654 23.699 49.4957 23.9647C50.3172 24.9145 50.9066 25.8156 52.2498 25.8156H54.7032C54.7032 25.8156 51.7366 22.403 51.464 22.0877C50.728 21.2362 50.1649 20.4249 49.0886 20.2649V20.1545C50.0164 19.9449 50.556 19.1701 51.2243 18.3588C51.4847 18.0435 54.2614 14.6309 54.2614 14.6309H50.7882L46.7904 19.4864C46.7904 19.4864 46.7904 12.8876 46.7904 10H43.7231V10.0019Z" fill="#FF0025"/>
<path fill-rule="evenodd" clip-rule="evenodd" d="M72.8256 14.4578C71.6027 14.4578 70.7962 14.9977 70.4324 15.415C70.0677 15.8323 70.1278 15.9474 70.0178 16.0279C69.8092 15.211 69.2527 14.6346 68.2976 14.6346H66.9619V25.8175H70.0291V20.044C70.0291 18.2325 70.8676 17.0619 72.0567 17.0647C73.2458 17.0684 73.9047 17.671 73.9047 19.0709V25.8175H76.9719V20.0908C76.9719 18.4627 77.6337 17.0563 79.0465 17.0638C80.4593 17.0712 80.9096 17.9939 80.9096 19.2019V25.8165H83.9533V18.3981C83.9533 17.1339 83.5773 16.1982 82.8102 15.4945C82.0423 14.7909 81.2038 14.4578 79.8229 14.4578C78.4421 14.4578 77.4673 15.0267 76.7172 15.838C76.5865 15.9793 76.4625 16.1711 76.3478 16.3301C76.156 15.925 75.8204 15.4805 75.5319 15.2419C74.809 14.643 74.0485 14.4578 72.8266 14.4578H72.8256Z" fill="#FF0025"/>
<path fill-rule="evenodd" clip-rule="evenodd" d="M90.0324 14.4578C88.1768 14.454 87.1757 15.0314 86.6127 15.5254C86.0487 16.0195 85.5345 16.6446 85.5298 17.9986C85.5251 19.3526 86.5206 20.4689 88.4851 21.0696C90.4497 21.6703 91.2638 21.8771 91.2572 22.5378C91.2506 23.1974 90.7618 23.6176 89.381 23.6176C88.0001 23.6176 86.6042 23.0066 85.5994 22.1036V24.8752C86.3504 25.4348 87.8037 25.9999 89.537 25.9999C91.2713 25.9999 92.3175 25.5779 92.9201 25.1016C93.5235 24.6254 94.2172 23.8702 94.2116 22.36C94.206 20.8497 93.1898 19.8569 91.6407 19.317C90.0916 18.7771 88.6412 18.5956 88.5218 17.9649C88.4024 17.3342 88.7615 16.9075 89.9036 16.8046C91.0457 16.7016 92.8994 17.2874 93.5282 17.9069V15.343C92.9426 15.0052 91.8889 14.4606 90.0324 14.4578Z" fill="#FF0025"/>
<path fill-rule="evenodd" clip-rule="evenodd" d="M100.72 14.4578C99.0515 14.455 97.7985 14.9696 96.7222 15.9998C95.6459 17.0301 95.0377 18.4412 95.0405 20.3884C95.0434 22.3356 95.8677 23.8094 96.9393 24.6703C98.0109 25.5311 99.2893 25.9999 101.091 25.9999C102.893 25.9999 104.286 25.3487 104.998 24.907V22.2683C104.503 22.6856 102.995 23.5025 101.481 23.5025C99.968 23.5025 98.4067 22.9991 98.0222 21.1351H105.679C105.716 20.8422 105.784 20.4015 105.782 19.9383C105.777 18.4327 105.449 17.4334 104.675 16.3629C103.899 15.2924 102.388 14.4625 100.719 14.4587L100.72 14.4578ZM100.575 16.7503C101.28 16.7503 101.77 16.9721 102.147 17.3669C102.524 17.7618 102.781 18.3495 102.823 18.982H98.0777C98.2074 18.4281 98.3568 18.0304 98.7751 17.5457C99.1934 17.061 99.8702 16.7512 100.575 16.7512V16.7503Z" fill="#FF0025"/>
<path fill-rule="evenodd" clip-rule="evenodd" d="M107.315 10.002V23.9059C107.315 25.3441 108.345 25.9991 109.352 25.9991C110.36 25.9991 111 25.665 111 25.665C111 25.665 110.385 25.17 110.383 22.9673C110.38 20.832 110.383 12.8026 110.383 11.8528C110.383 10.9031 109.774 10.002 108.652 10.002H107.316H107.315Z" fill="#FF0025"/>
</svg>
