<svg width="128" height="36" viewBox="0 0 128 36" fill="none" xmlns="http://www.w3.org/2000/svg">
<path fill-rule="evenodd" clip-rule="evenodd" d="M67.4167 5.27697C67.7218 5.09016 68.095 4.92959 68.4613 5.03187C68.7867 5.14978 68.8991 5.51438 68.8913 5.81937C68.8927 9.62648 68.8921 13.4333 68.8913 17.2402C72.6543 17.2402 76.417 17.2381 80.1799 17.2407C80.48 17.2394 80.8414 17.3361 80.9599 17.6299C81.0839 17.9794 80.8959 18.335 80.7298 18.6392C79.7444 20.3751 78.7147 22.0878 77.6701 23.7911C77.36 24.1867 76.951 24.5552 76.4352 24.6745C76.0061 24.7733 75.5614 24.7699 75.1237 24.7762C73.875 24.7802 72.6271 24.7773 71.3785 24.7781C70.835 24.7762 70.2242 24.8003 69.7956 25.1628C69.439 25.4887 69.4833 26.0155 69.622 26.4286C69.9257 27.3099 70.5052 28.0688 70.9335 28.8939C70.4919 28.6106 70.065 28.307 69.6574 27.9813C68.3894 26.9074 67.2284 25.7153 66.2472 24.3926C63.3049 20.4895 61.7824 15.7139 61.5055 10.9352C61.457 9.88721 61.905 8.74041 62.8849 8.19033C64.396 7.21948 65.9066 6.24889 67.4164 5.27697H67.4167Z" fill="#29B895"/>
<path fill-rule="evenodd" clip-rule="evenodd" d="M47.0451 12.9102C47.201 12.5972 47.5941 12.5005 47.9266 12.5063C50.2114 12.5069 52.4961 12.5063 54.7806 12.5069C55.1765 12.5146 55.5935 12.5294 55.9498 12.7149C56.3128 12.9025 56.5861 13.2056 56.8638 13.4894C57.698 14.3969 58.5297 15.3063 59.3628 16.2144C59.4104 16.2621 59.4957 16.368 59.5622 16.2764C60.0209 15.8007 60.4551 15.3029 60.9111 14.8241C61.2921 17.1465 62.2304 19.3649 63.4996 21.3697C65.1162 23.9036 67.2406 26.1272 69.6574 27.9818C70.065 28.3074 70.4919 28.6111 70.9335 28.8943C71.2093 29.1821 71.4726 29.4818 71.7373 29.7785C71.9364 29.9998 72.0718 30.3191 71.9472 30.6044C71.811 30.8874 71.4626 31.0027 71.1564 30.9987C68.849 31.0006 66.541 30.9987 64.2338 31C63.8465 31 63.4406 30.9897 63.087 30.8196C62.7163 30.6357 62.4314 30.3358 62.1523 30.0456C61.3319 29.1513 60.511 28.2573 59.6928 27.3615C59.6311 27.2904 59.5558 27.2316 59.4761 27.181C58.6059 28.1134 57.7539 29.061 56.8868 29.9958C56.6024 30.2984 56.3111 30.6103 55.9332 30.8077C55.581 30.9844 55.174 30.9998 54.7859 30.9998C52.4762 30.9985 50.166 31 47.8569 30.9993C47.5252 31.008 47.1304 30.8726 47.0257 30.5419C46.9246 30.2046 47.1389 29.8909 47.3654 29.6537C49.7615 27.017 52.1606 24.3832 54.5693 21.7576C52.1567 19.0986 49.7205 16.4603 47.3125 13.7981C47.0874 13.5646 46.9155 13.2279 47.0448 12.9102H47.0451Z" fill="#1F4098"/>
</svg>
